<?xml version="1.0" encoding="UTF-8"?>
<svg width="84px" height="84px" viewBox="0 0 84 84" version="1.1" xmlns="http://www.w3.org/2000/svg" xmlns:xlink="http://www.w3.org/1999/xlink">
    <title>编组 7</title>
    <g id="页面-1" stroke="none" stroke-width="1" fill="none" fill-rule="evenodd">
        <g id="发布" transform="translate(-98.000000, -1016.000000)">
            <g id="编组-7" transform="translate(98.000000, 1016.000000)">
                <circle id="椭圆形备份" fill="#FE9706" cx="42" cy="42" r="42"></circle>
                <g id="_Icons-/-11-Play备份-4" transform="translate(12.000000, 12.000000)" fill="#FFFFFF">
                    <path d="M44.7678572,19.7678571 L34.875,9.8749999 C34.0383434,9.04045567 32.9049326,8.57142846 31.7232143,8.57142846 L18.3928571,8.57142846 C15.9273002,8.57142846 13.9285713,10.5701573 13.9285713,13.0357142 L13.9285713,46.9642858 C13.9285713,48.148288 14.3989144,49.2837965 15.2361304,50.1210125 C16.0733463,50.9582285 17.2088549,51.4285715 18.3928571,51.4285715 L41.6071429,51.4285715 C44.0726998,51.4285715 46.0714287,49.4298427 46.0714287,46.9642858 L46.0714287,22.9196428 C46.0714287,21.7379245 45.6024014,20.6045137 44.7678572,19.7678571 Z M24.6428571,30.8928571 L30.8928571,30.8928571 C31.8790799,30.8928571 32.6785714,31.6923487 32.6785714,32.6785714 C32.6785714,33.6647942 31.8790799,34.4642857 30.8928571,34.4642857 L24.6428571,34.4642857 C23.6566343,34.4642857 22.8571428,33.6647942 22.8571428,32.6785714 C22.8571428,31.6923487 23.6566343,30.8928571 24.6428571,30.8928571 Z M35.3571428,42.5000001 L24.6428571,42.5000001 C23.6566343,42.5000001 22.8571428,41.7005085 22.8571428,40.7142858 C22.8571428,39.728063 23.6566343,38.9285715 24.6428571,38.9285715 L35.3571428,38.9285715 C36.3433657,38.9285715 37.1428572,39.728063 37.1428572,40.7142858 C37.1428572,41.7005085 36.3433657,42.5000001 35.3571428,42.5000001 Z M41.2410715,23.75 L35.3571429,23.75 C32.891586,23.75 30.8928571,21.7512712 30.8928571,19.2857142 L30.8928571,13.4017856 C30.8943712,13.0406748 31.1132565,12.7160307 31.4474533,12.579225 C31.78165,12.4424193 32.165349,12.5203915 32.4196429,12.7767856 L41.8660715,22.2232142 C42.1224656,22.4775081 42.2004378,22.8612071 42.0636321,23.1954039 C41.9268264,23.5296006 41.6021823,23.7484859 41.2410715,23.75 Z" id="文章"></path>
                </g>
            </g>
        </g>
    </g>
</svg>