<?xml version="1.0" standalone="no"?><!DOCTYPE svg PUBLIC "-//W3C//DTD SVG 1.1//EN" "http://www.w3.org/Graphics/SVG/1.1/DTD/svg11.dtd"><svg t="1615356652811" class="icon" viewBox="0 0 1024 1024" version="1.1" xmlns="http://www.w3.org/2000/svg" p-id="4913" xmlns:xlink="http://www.w3.org/1999/xlink" width="200" height="200"><defs><style type="text/css"></style></defs><path d="M556.763429 788.150857a29.842286 29.842286 0 0 1 25.526857 44.8 89.563429 89.563429 0 0 1-154.331429 0 29.842286 29.842286 0 0 1 25.526857-44.8h103.277715zM282.404571 370.176a223.890286 223.890286 0 0 1 236.178286-208.969143 227.181714 227.181714 0 0 1 209.700572 214.674286l14.043428 213.906286c0.475429 7.460571 2.852571 14.701714 6.875429 21.028571l40.594285 63.744a44.763429 44.763429 0 0 1-37.924571 68.827429H258.230857a44.8 44.8 0 0 1-37.741714-68.827429l40.155428-63.268571c4.022857-6.363429 6.363429-13.604571 6.838858-21.065143z" p-id="4914"></path></svg>
