<?xml version="1.0" encoding="UTF-8"?>
<svg width="50px" height="54px" viewBox="0 0 50 54" version="1.1" xmlns="http://www.w3.org/2000/svg" xmlns:xlink="http://www.w3.org/1999/xlink">
    <title>goumai</title>
    <g id="页面-1" stroke="none" stroke-width="1" fill="none" fill-rule="evenodd">
        <g id="我的公会" transform="translate(-66.000000, -1510.000000)" fill="#FE9706" fill-rule="nonzero">
            <g id="金币任务" transform="translate(30.000000, 1306.000000)">
                <g id="编组-19" transform="translate(36.000000, 196.000000)">
                    <g id="goumai" transform="translate(0.000000, 8.000000)">
                        <path d="M35.0867537,3.22675339 L34.7106853,3.70451749 L30.9515995,8.24433119 L18.0443574,8.24433119 L14.2852717,3.70451749 L14.1600931,3.58481278 L13.7840247,3.10704868 L13.9092033,2.98734402 C13.9092033,2.86816665 13.7840247,2.74846194 13.7840247,2.62875723 C13.7840247,2.03128842 14.1600931,1.43381965 14.7865186,1.19493758 L14.7865186,1.07523292 C14.7865186,1.07523292 20.0493452,0.119704711 24.4353892,0 C28.9466117,0 34.0842598,1.07523292 34.0842598,1.07523292 L34.0842598,1.19493758 C34.7106853,1.43381965 35.0867537,1.91158376 35.0867537,2.62875723 C35.0867537,2.7479346 35.0867537,2.86763931 34.9615751,2.98734402 L35.0867537,3.22675339 Z M31.9540934,33.6908068 C33.0817659,33.6908068 34.0842598,32.7352786 34.0842598,31.6600457 C34.0842598,30.5848128 33.0817659,29.6292846 31.9540934,29.6292846 L27.6937607,29.6292846 L27.6937607,29.5095799 L32.7062302,24.6111795 C33.5835455,23.7748286 33.0822985,23.0581825 32.3301618,22.2218316 C31.4528465,21.3854808 30.0748169,21.2663034 29.4478587,21.9829495 L25.0618147,26.4030585 L20.4254136,21.9829495 C19.7989881,21.3854807 18.6707829,21.6243628 17.7940003,22.3415363 C16.916685,23.1778871 16.7915064,24.25312 17.4179319,24.8505889 L22.1795116,29.3904025 C22.054333,29.5095799 22.054333,29.6292846 22.054333,29.7489893 L18.169536,29.7489893 C17.0418635,29.7489893 16.0393696,30.7045175 16.0393696,31.7797504 C16.0393696,32.8549833 17.0418635,33.8105115 18.169536,33.8105115 L22.4298687,33.8105115 L22.4298687,35.8412726 L18.169536,35.8412726 C17.0418635,35.8412726 16.0393696,36.7968008 16.0393696,37.8720337 C16.0393696,38.9472667 17.0418635,39.9027949 18.169536,39.9027949 L22.4298687,39.9027949 L22.4298687,42.4118474 C22.4298687,43.8456671 23.6827198,44.9203727 25.0612821,44.9203727 C26.5650229,44.9203727 27.6926954,43.7254351 27.6926954,42.4118474 L27.6926954,39.9027949 L31.9530281,39.9027949 C33.0807006,39.9027949 34.0831944,38.9472667 34.0831944,37.8720337 C34.0831944,36.7968008 33.0807006,35.8412726 31.9530281,35.8412726 L27.6926954,35.8412726 L27.6926954,33.8105115 L31.9540934,33.6908068 L31.9540934,33.6908068 Z M25.0618147,54 C7.39299295,54 0,48.026894 0,35.6023906 C0,25.328353 8.39601956,14.6957286 18.5461371,11.2311478 L31.4533792,11.2311478 C41.602964,14.5760239 49.9984508,25.3278256 49.9984508,35.6023906 C50.1241621,48.0263666 42.6054579,54 25.0618147,54 Z" id="形状"></path>
                    </g>
                </g>
            </g>
        </g>
    </g>
</svg>