<?xml version="1.0" standalone="no"?><!DOCTYPE svg PUBLIC "-//W3C//DTD SVG 1.1//EN" "http://www.w3.org/Graphics/SVG/1.1/DTD/svg11.dtd"><svg t="1615371526888" class="icon" viewBox="0 0 1024 1024" version="1.1" xmlns="http://www.w3.org/2000/svg" p-id="6762" xmlns:xlink="http://www.w3.org/1999/xlink" width="200" height="200"><defs><style type="text/css"></style></defs><path d="M512 146.285714C310.016 146.285714 146.285714 310.016 146.285714 512s163.730286 365.714286 365.714286 365.714286 365.714286-163.730286 365.714286-365.714286A365.714286 365.714286 0 0 0 512 146.285714z m118.564571 441.892572a30.464 30.464 0 0 1-21.650285 51.968 30.464 30.464 0 0 1-20.736-9.581715l-75.410286-76.214857-75.446857 76.214857a30.464 30.464 0 1 1-43.117714-43.154285L470.418286 512l-76.214857-75.446857a30.500571 30.500571 0 0 1 43.154285-43.117714l75.410286 76.214857 75.410286-76.214857a30.500571 30.500571 0 1 1 43.154285 43.154285L555.081143 512l75.446857 76.178286z" p-id="6763"></path></svg>
