<?xml version="1.0" encoding="UTF-8"?>
<svg width="102px" height="102px" viewBox="0 0 102 102" version="1.1" xmlns="http://www.w3.org/2000/svg" xmlns:xlink="http://www.w3.org/1999/xlink">
    <title>jinbi</title>
    <g id="页面-1" stroke="none" stroke-width="1" fill="none" fill-rule="evenodd">
        <g id="我的公会" transform="translate(-60.000000, -693.000000)" fill-rule="nonzero">
            <g id="我的金币" transform="translate(30.000000, 588.000000)">
                <g id="编组-13" transform="translate(30.000000, 30.000000)">
                    <g id="jinbi" transform="translate(0.000000, 75.000000)">
                        <path d="M0,50.9978745 C0,79.1642425 22.8315066,102 50.9978745,102 C79.1642425,102 102,79.1642426 102,50.9978745 C102,22.8315066 79.1642425,0 50.9978745,0 C22.8334985,0.0023473431 0.0023473431,22.8334985 0,50.9978745 Z" id="路径" fill="#FFD96B"></path>
                        <path d="M8.82692308,50.9969808 C8.80412261,66.0612506 16.8353796,79.9888712 29.8853681,87.515966 C42.9461572,95.0554315 59.0364292,95.0590032 72.1005647,87.525337 C85.1545116,80.0026562 93.1912944,66.0765375 93.1730769,51.0110374 C93.1980027,35.9400709 85.1624964,22.0059188 72.1052507,14.4779956 C59.0439796,6.94323222 42.956011,6.94323222 29.8947399,14.4779956 C16.8411438,22.0027043 8.80605277,35.9307752 8.82692308,50.9969808 Z" id="路径" fill="#F9AB10"></path>
                        <path d="M46.7800343,61.9769258 L35.8178245,61.9769258 L35.8178245,55.5805604 L46.7800343,55.5805604 L46.7800343,52.1175282 L35.8178245,52.1175282 L35.8178245,45.7161657 L43.5276228,45.7161657 L34.3269231,27.4615385 L43.4255062,27.4615385 L49.3329477,39.7895333 C49.9967052,41.0987894 50.532817,42.4630142 50.9361772,43.8722134 C51.354855,42.4680114 51.8909668,41.1037866 52.5394067,39.7895333 L58.5744938,27.4615385 L67.6730769,27.4615385 L58.365155,45.7211629 L66.2025988,45.7211629 L66.2025988,52.1175282 L55.0821084,52.1175282 L55.0821084,55.5805604 L66.2025988,55.5805604 L66.2025988,61.9769258 L55.0821084,61.9769258 L55.0821084,75.5192308 L46.790246,75.5192308 L46.7749285,61.9769258 L46.7800343,61.9769258 Z" id="路径" fill="#FFFFFF"></path>
                    </g>
                </g>
            </g>
        </g>
    </g>
</svg>