<?xml version="1.0" standalone="no"?><!DOCTYPE svg PUBLIC "-//W3C//DTD SVG 1.1//EN" "http://www.w3.org/Graphics/SVG/1.1/DTD/svg11.dtd"><svg t="1615356736938" class="icon" viewBox="0 0 1024 1024" version="1.1" xmlns="http://www.w3.org/2000/svg" p-id="6366" xmlns:xlink="http://www.w3.org/1999/xlink" width="200" height="200"><defs><style type="text/css"></style></defs><path d="M269.165714 475.428571a61.074286 61.074286 0 0 1 60.196572 44.434286c20.662857 82.432 96.036571 140.361143 182.637714 140.361143s162.011429-57.929143 182.637714-140.361143A61.074286 61.074286 0 0 1 754.834286 475.428571h76.690285C904.045714 475.428571 950.857143 521.325714 950.857143 577.828571v307.2c0 56.539429-46.811429 102.4-104.484572 102.4H177.627429C119.954286 987.428571 73.142857 941.568 73.142857 885.028571v-307.2C73.142857 521.289143 119.954286 475.428571 177.627429 475.428571H269.165714z m289.060572-402.285714c25.563429 0 46.262857 20.260571 46.262857 45.275429v170.24h80.676571c18.724571 0 35.620571 11.044571 42.788572 28.013714a44.617143 44.617143 0 0 1-10.203429 49.371429l-173.165714 169.362285c-18.029714 17.554286-47.177143 17.554286-65.170286 0l-173.165714-169.325714a44.617143 44.617143 0 0 1-10.203429-49.408 46.262857 46.262857 0 0 1 42.788572-28.013714h80.676571V118.418286c0-25.014857 20.699429-45.275429 46.262857-45.275429h92.452572z" p-id="6367"></path></svg>
