<?xml version="1.0" standalone="no"?><!DOCTYPE svg PUBLIC "-//W3C//DTD SVG 1.1//EN" "http://www.w3.org/Graphics/SVG/1.1/DTD/svg11.dtd"><svg t="1615356670176" class="icon" viewBox="0 0 1024 1024" version="1.1" xmlns="http://www.w3.org/2000/svg" p-id="5045" xmlns:xlink="http://www.w3.org/1999/xlink" width="200" height="200"><defs><style type="text/css"></style></defs><path d="M743.387429 803.108571a37.302857 37.302857 0 1 1 0 74.605715H280.612571a37.302857 37.302857 0 0 1 0-74.605715h462.774858zM589.897143 182.966857a74.605714 74.605714 0 0 1 105.508571 0l63.451429 63.268572a74.605714 74.605714 0 0 1 0 105.398857l-272.566857 272.457143a74.605714 74.605714 0 0 1-29.842286 18.322285l-174.372571 54.784a29.842286 29.842286 0 0 1-37.302858-37.449143l54.637715-174.518857a74.605714 74.605714 0 0 1 18.505143-29.842285z m60.928 45.129143a29.878857 29.878857 0 0 0-28.854857 7.716571l-253.769143 253.769143a29.842286 29.842286 0 0 0 41.801143 42.057143L663.808 277.942857l0.438857 0.146286a29.878857 29.878857 0 0 0-13.385143-49.956572z" p-id="5046"></path></svg>
