<?xml version="1.0" encoding="UTF-8"?>
<svg width="28px" height="28px" viewBox="0 0 28 28" version="1.1" xmlns="http://www.w3.org/2000/svg" xmlns:xlink="http://www.w3.org/1999/xlink">
    <title>_Icons / 23 Close备份 2</title>
    <g id="_Icons-/-23-Close备份-2" stroke="none" stroke-width="1" fill="none" fill-rule="evenodd">
        <path d="M13.9999999,3.99999995 C8.47715247,3.99999995 3.99999995,8.47715247 3.99999995,13.9999999 C3.99999995,19.5228475 8.47715247,23.9999999 13.9999999,23.9999999 C19.5228475,23.9999999 23.9999999,19.5228475 23.9999999,13.9999999 C23.9999999,11.3478351 22.9464316,8.80429595 21.0710678,6.92893215 C19.1957041,5.05356836 16.6521649,3.99999995 13.9999999,3.99999995 Z M17.2416667,16.0833333 C17.4790551,16.3221382 17.5494017,16.6803399 17.4199584,16.9911862 C17.290515,17.3020326 16.9867209,17.5044337 16.65,17.5041669 C16.4342257,17.4934287 16.2310546,17.3993127 16.0833333,17.2416667 L14.0208333,15.1583333 L11.9583333,17.2416667 C11.8020264,17.3981476 11.5899244,17.4860722 11.36875,17.4860722 C11.1475756,17.4860722 10.9354735,17.3981476 10.7791667,17.2416667 C10.6226858,17.0853598 10.5347611,16.8732577 10.5347611,16.6520833 C10.5347611,16.430909 10.6226858,16.2188069 10.7791667,16.0625 L12.8625,14 L10.7791667,11.9375 C10.4535488,11.6118821 10.4535488,11.0839512 10.7791667,10.7583333 C11.1047845,10.4327154 11.6327154,10.4327154 11.9583333,10.7583333 L14.0208333,12.8416667 L16.0833333,10.7583333 C16.4089512,10.4327154 16.9368821,10.4327154 17.2625,10.7583333 C17.5881179,11.0839512 17.5881179,11.6118821 17.2625,11.9375 L15.1791667,14 L17.2416667,16.0833333 Z" id="23-Close" fill="#FF0023"></path>
    </g>
</svg>