<?xml version="1.0" encoding="UTF-8"?>
<svg width="28px" height="28px" viewBox="0 0 28 28" version="1.1" xmlns="http://www.w3.org/2000/svg" xmlns:xlink="http://www.w3.org/1999/xlink">
    <title>_Icons / 31 Fire</title>
    <g id="_Icons-/-31-Fire" stroke="none" stroke-width="1" fill="none" fill-rule="evenodd">
        <path d="M19.4489796,9.21224487 C18.2626494,7.31214535 16.6552384,5.71032042 14.7510204,4.5306122 C14.451555,4.31255598 14.0428024,4.32348197 13.7554137,4.55722484 C13.4680249,4.79096771 13.3740555,5.18892225 13.5265306,5.52653057 C14.4173173,8.33913624 13.7405631,11.4133117 11.7510204,13.5918367 C11.7510204,13.5918367 10.6612245,12.4163265 10.8408163,10.0571428 C10.8795106,9.70429172 10.6857494,9.36687801 10.3614924,9.22245318 C10.0372353,9.07802834 9.65681283,9.15969932 9.42040814,9.42448977 C7.95856334,10.9502761 7.01579153,12.8986712 6.72653058,14.9918367 C6.12653057,19.5102041 9.32653059,23.7428572 13.6285714,23.967347 C17.8530612,24.1877552 21.3469551,20.6204082 21.3469551,16.1877551 C21.3507243,13.7345276 20.6952152,11.3253555 19.4489796,9.21224487 Z" id="31-Fire" fill="#ED17AA"></path>
    </g>
</svg>