<?xml version="1.0" encoding="UTF-8"?>
<svg width="25px" height="26px" viewBox="0 0 25 26" version="1.1" xmlns="http://www.w3.org/2000/svg" xmlns:xlink="http://www.w3.org/1999/xlink">
    <title>_Icons / 8 Like_pink备份 2</title>
    <g id="页面-1" stroke="none" stroke-width="1" fill="none" fill-rule="evenodd">
        <g id="文章说说-评论" transform="translate(-646.000000, -1417.000000)" fill="#02BB00">
            <g id="编组-6" transform="translate(0.000000, 1385.000000)">
                <g id="编组-3" transform="translate(34.000000, 15.000000)">
                    <g id="编组-2备份" transform="translate(612.000000, 17.000000)">
                        <g id="_Icons-/-8-Like_pink备份-2" transform="translate(0.000000, 0.176471)">
                            <path d="M24.6273654,9.38348802 L15.899667,1.15163403 C15.552758,0.823529412 15.0420515,0.732290305 14.6015887,0.919769374 C14.1611258,1.10724844 13.8758024,1.53729464 13.8763733,2.01283087 L13.8763733,5.61203976 C4.53809515,6.94837969 0.712992736,14.8535728 0.000649720166,24.2020131 C-0.012533007,24.483997 0.176149217,24.7362275 0.451993699,24.8053699 C0.727838181,24.8745122 1.0146216,24.7414605 1.13800412,24.4870989 C3.44862936,19.4565215 7.12407988,14.8951478 13.8763733,14.87733 L13.8763733,18.4765388 C13.8758024,18.9520751 14.1611258,19.3821213 14.6015887,19.5696003 C15.0420515,19.7570794 15.552758,19.6658563 15.899667,19.3377357 L24.6273654,11.1058817 C24.865289,10.8816213 25,10.5702903 25,10.2446849 C25,9.91907944 24.865289,9.60774838 24.6273654,9.38348802 Z" id="36-Right_5"></path>
                        </g>
                    </g>
                </g>
            </g>
        </g>
    </g>
</svg>