<?xml version="1.0" standalone="no"?>
<!DOCTYPE svg PUBLIC "-//W3C//DTD SVG 1.1//EN" "http://www.w3.org/Graphics/SVG/1.1/DTD/svg11.dtd">
<svg t="1615357705865" class="icon" viewBox="0 0 1024 1024" version="1.1" xmlns="http://www.w3.org/2000/svg" p-id="6630" xmlns:xlink="http://www.w3.org/1999/xlink" width="200" height="200">
    <defs>
        <style type="text/css"></style>
    </defs>
    <path d="M753.371429 780.690286H285.549714a74.642286 74.642286 0 0 1-74.605714-64.768L161.170286 342.272A44.763429 44.763429 0 0 1 235.885714 303.469714l83.602286 77.458286a44.763429 44.763429 0 0 0 65.682286-3.291429l99.986285-117.906285a44.763429 44.763429 0 0 1 68.681143 0l100.022857 117.942857a44.763429 44.763429 0 0 0 64.768 3.876571l83.602286-78.518857a44.763429 44.763429 0 0 1 74.605714 38.765714l-49.700571 373.211429a74.642286 74.642286 0 0 1-73.728 65.682286z"  p-id="6631">

    </path>
</svg>
