<?xml version="1.0" standalone="no"?><!DOCTYPE svg PUBLIC "-//W3C//DTD SVG 1.1//EN" "http://www.w3.org/Graphics/SVG/1.1/DTD/svg11.dtd"><svg t="1615788400756" class="icon" viewBox="0 0 1024 1024" version="1.1" xmlns="http://www.w3.org/2000/svg" p-id="3274" xmlns:xlink="http://www.w3.org/1999/xlink" width="200" height="200"><defs><style type="text/css"></style></defs><path d="M0 512c0 282.770286 229.229714 512 512 512s512-229.229714 512-512S794.770286 0 512 0 0 229.229714 0 512z" fill="#1452F5" p-id="3275"></path><path d="M808.850286 372.150857l-114.541715 84.845714a20.224 20.224 0 0 1-29.110857-5.485714l-117.613714-186.075428a20.150857 20.150857 0 0 0-34.121143 0l-117.650286 186.002285a20.114286 20.114286 0 0 1-29.184 5.339429l-114.834285-86.674286c-14.262857-10.788571-34.486857 1.024-32.182857 18.944l41.801142 334.665143A91.794286 91.794286 0 0 0 352.146286 804.571429h352.877714a91.794286 91.794286 0 0 0 90.624-79.908572l45.312-333.202286a20.333714 20.333714 0 0 0-32.109714-19.309714z m-159.012572 357.632c0 13.750857-12.946286 24.905143-28.708571 24.905143h-181.686857c-15.872 0-28.708571-11.227429-28.708572-24.905143 0-13.787429 12.946286-24.941714 28.708572-24.941714h181.686857c15.762286-0.109714 28.708571 11.154286 28.708571 24.941714z" fill="#FFFFFF" p-id="3276"></path></svg>