<?xml version="1.0" standalone="no"?><!DOCTYPE svg PUBLIC "-//W3C//DTD SVG 1.1//EN" "http://www.w3.org/Graphics/SVG/1.1/DTD/svg11.dtd"><svg t="1616470145223" class="icon" viewBox="0 0 1024 1024" version="1.1" xmlns="http://www.w3.org/2000/svg" p-id="3019" xmlns:xlink="http://www.w3.org/1999/xlink" width="200" height="200"><defs><style type="text/css"></style></defs><path d="M825.6 415.670857L528.896 159.085714a54.857143 54.857143 0 0 0-70.363429 0l-296.704 256.621715c-14.884571 12.909714-19.602286 32.658286-11.885714 49.956571 7.68 17.261714 26.221714 28.598857 46.884572 28.672H223.085714v307.2c0 20.224 8.923429 39.606857 24.795429 53.906286 15.835429 14.262857 37.376 22.308571 59.794286 22.308571h372.150857c46.701714 0 84.589714-34.121143 84.589714-76.178286v-307.2h26.038857c20.699429-0.036571 39.314286-11.337143 47.030857-28.635428 7.753143-17.298286 3.072-37.083429-11.849143-50.029714z" p-id="3020"></path></svg>
