<?xml version="1.0" encoding="UTF-8"?>
<svg width="28px" height="28px" viewBox="0 0 28 28" version="1.1" xmlns="http://www.w3.org/2000/svg" xmlns:xlink="http://www.w3.org/1999/xlink">
    <title>_Icons / 2 Hourglass_2</title>
    <g id="_Icons-/-2-Hourglass_2" stroke="none" stroke-width="1" fill="none" fill-rule="evenodd">
        <path d="M20.0583334,9.60833331 C20.4477873,9.21789357 20.6666667,8.68896853 20.6666667,8.13749997 L20.6666667,6.08333329 C20.6666667,4.93274006 19.7339266,3.99999995 18.5833334,3.99999995 L9.41666664,3.99999995 C8.26607341,3.99999995 7.3333333,4.93274006 7.3333333,6.08333329 L7.3333333,8.13749997 C7.3333333,8.68896853 7.55221266,9.21789357 7.94166664,9.60833331 L11.7458333,13.4125 C12.0689363,13.7375312 12.0689363,14.2624688 11.7458333,14.5875 L7.94166664,18.3916667 C7.55221266,18.7821064 7.3333333,19.3110315 7.3333333,19.8625 L7.3333333,21.9166667 C7.3333333,22.4692011 7.55282672,22.9991051 7.94352751,23.3898058 C8.3342283,23.7805066 8.86413229,24 9.41666664,24 L18.5833334,24 C19.7339266,24 20.6666667,23.0672599 20.6666667,21.9166667 L20.6666667,19.8625 C20.6666667,19.3110315 20.4477873,18.7821064 20.0583334,18.3916667 L16.2541667,14.5875 C15.9310637,14.2624688 15.9310637,13.7375312 16.2541667,13.4125 L20.0583334,9.60833331 Z M17.75,19.8333334 C18.2102373,19.8333334 18.5833334,20.2064294 18.5833334,20.6666667 L18.5833334,21.0833334 C18.5833334,21.5435707 18.2102373,21.9166667 17.75,21.9166667 L10.25,21.9166667 C9.78976269,21.9166667 9.41666664,21.5435707 9.41666664,21.0833334 L9.41666664,20.6666667 C9.41666664,20.2064294 9.78976269,19.8333334 10.25,19.8333334 L17.75,19.8333334 Z M14.5875,12.1625 C14.2624688,12.485603 13.7375312,12.485603 13.4125,12.1625 L10.8375,9.58749998 C10.6001116,9.34869507 10.529765,8.99049346 10.6592083,8.67964709 C10.7886517,8.36880072 11.0924457,8.16639961 11.4291667,8.16666637 L16.5708333,8.16666637 C16.9075543,8.16639961 17.2113483,8.36880072 17.3407917,8.67964709 C17.470235,8.99049346 17.3998884,9.34869507 17.1625,9.58749998 L14.5875,12.1625 Z" id="2-Hourglass_2" fill="#1452F5"></path>
    </g>
</svg>