<?xml version="1.0" standalone="no"?><!DOCTYPE svg PUBLIC "-//W3C//DTD SVG 1.1//EN" "http://www.w3.org/Graphics/SVG/1.1/DTD/svg11.dtd"><svg t="1615789384420" class="icon" viewBox="0 0 1024 1024" version="1.1" xmlns="http://www.w3.org/2000/svg" p-id="3539" xmlns:xlink="http://www.w3.org/1999/xlink" width="200" height="200"><defs><style type="text/css"></style></defs><path d="M637.732571 410.550857c-10.752-4.132571-28.013714-6.217143-51.785142-6.217143h-63.524572v230.985143h64.548572c19.931429 0 35.584-1.828571 46.921142-5.595428 11.337143-3.693714 20.370286-8.923429 27.136-15.689143 9.472-9.472 16.896-22.235429 22.162286-38.217143 5.266286-16.054857 7.936-35.474286 7.936-58.294857 0-31.561143-5.193143-55.881143-15.579428-72.886857-10.349714-16.969143-22.966857-28.306286-37.814858-34.084572z m89.965715 170.313143c-5.485714 18.285714-12.617143 33.353143-21.211429 45.275429-7.68 11.008-17.261714 20.589714-28.306286 28.233142-10.24 6.875429-22.674286 12.068571-37.156571 15.616a213.028571 213.028571 0 0 1-49.956571 5.266286H478.866286V364.324571h107.117714c24.210286 0 42.642286 1.462857 55.369143 4.425143 17.773714 4.132571 33.024 11.556571 45.604571 22.308572 16.384 13.860571 28.672 31.561143 36.754286 53.138285 8.192 21.577143 12.214857 46.189714 12.214857 73.910858 0 23.625143-2.742857 44.544-8.228571 62.793142v-0.036571z m-338.505143 94.427429c-13.238857 0-23.954286-9.216-23.954286-20.589715V384.841143c0-11.337143 10.715429-20.553143 23.954286-20.553143 13.238857 0 23.954286 9.216 23.954286 20.553143l-0.073143 269.933714c0 11.337143-10.715429 20.48-23.881143 20.48zM530.358857 146.285714C318.281143 146.249143 146.358857 318.171429 146.285714 530.212571c-0.036571 212.114286 171.849143 384 383.926857 384.073143h0.146286c212.077714-0.036571 384-171.995429 383.926857-384.073143C914.249143 318.208 742.4 146.322286 530.358857 146.285714z" p-id="3540"></path></svg>
