<?xml version="1.0" encoding="UTF-8"?>
<svg width="58px" height="53px" viewBox="0 0 58 53" version="1.1" xmlns="http://www.w3.org/2000/svg" xmlns:xlink="http://www.w3.org/1999/xlink">
    <title>yaoqinghaoyou</title>
    <g id="页面-1" stroke="none" stroke-width="1" fill="none" fill-rule="evenodd">
        <g id="我的公会" transform="translate(-62.000000, -1417.000000)" fill="#1452F5" fill-rule="nonzero">
            <g id="金币任务" transform="translate(30.000000, 1306.000000)">
                <g id="编组-20" transform="translate(32.000000, 102.000000)">
                    <g id="yaoqinghaoyou" transform="translate(0.000000, 9.000000)">
                        <path d="M20.7142857,33.9714286 L37.2857143,33.9714286 C42.3193953,33.9714286 46.4,38.0520333 46.4,43.0857143 L46.4,47.2285714 C46.4,49.9766666 44.1766666,52.2 41.4285714,52.2 L16.5714286,52.2 C13.8233334,52.2 11.6,49.9766666 11.6,47.2285714 L11.6,43.0857143 C11.6,38.0520333 15.6806047,33.9714286 20.7142857,33.9714286 L20.7142857,33.9714286 Z M26.5142857,0 L30.6571429,0 C36.6090476,0 41.4285714,4.81952379 41.4285714,10.7714286 L41.4285714,16.5714286 C41.4285714,22.5233334 36.6090476,27.3428571 30.6571429,27.3428571 L26.5142857,27.3428571 C20.5623809,27.3428571 15.7428571,22.5233334 15.7428571,16.5714286 L15.7428571,10.7714286 C15.7428571,4.81952379 20.5623809,0 26.5142857,0 Z" id="形状"></path>
                        <path d="M41.1109524,25.9619048 C43.3619047,23.7385714 44.7428571,20.7833333 44.7428571,17.5519048 L44.7428571,8.68619048 C44.7428571,6.20047619 43.9280952,3.88047619 42.5333334,1.93333333 L43.0857143,1.93333333 C49.0376191,1.93333333 53.8571429,6.75285712 53.8571429,12.7047619 L53.8571429,15.1904762 C53.8571429,21.142381 49.0376191,25.9619048 43.0857143,25.9619048 L41.1109524,25.9619048 Z M14.6380952,1.93333333 C13.2433333,3.88047619 12.4285714,6.20047619 12.4285714,8.68619048 L12.4285714,17.5519048 C12.4285714,20.7833333 13.7957143,23.7385714 16.0604762,25.9619048 L14.9142857,25.9619048 C8.96238093,25.9619048 4.14285714,21.142381 4.14285714,15.1904762 L4.14285714,12.7047619 C4.14285714,6.84952383 8.81047621,2.08523812 14.6380952,1.93333333 Z M49.6728571,47.5047619 C49.7004762,47.2285714 49.7142857,46.952381 49.7142857,46.6761905 L49.7142857,42.5333333 C49.7142857,37.9347619 47.2147619,33.9161905 43.4861905,31.7619048 L50.1285714,31.7619048 C54.4785714,31.7619048 58,35.2833333 58,39.6333333 L58,42.5333333 C58,45.2814285 55.7766666,47.5047619 53.0285714,47.5047619 L49.6728571,47.5047619 Z M14.5138095,31.7619048 C10.6601953,33.9795457 8.28513967,38.0871807 8.28571429,42.5333333 L8.28571429,46.6761905 C8.28571429,47.242381 8.34095236,47.7947619 8.45142857,48.3333333 L4.97142857,48.3333333 C2.22333335,48.3333333 0,46.11 0,43.3619048 L0,40.047619 C0,35.4766667 3.71476193,31.7619048 8.28571429,31.7619048 L14.5138095,31.7619048 L14.5138095,31.7619048 Z" id="形状" fill-opacity="0.2"></path>
                    </g>
                </g>
            </g>
        </g>
    </g>
</svg>