<?xml version="1.0" encoding="UTF-8"?>
<svg width="28px" height="27px" viewBox="0 0 28 27" version="1.1" xmlns="http://www.w3.org/2000/svg" xmlns:xlink="http://www.w3.org/1999/xlink">
    <title>dianzan</title>
    <g id="页面-1" stroke="none" stroke-width="1" fill="none" fill-rule="evenodd">
        <g id="文章说说-评论" transform="translate(-558.000000, -1415.000000)" fill="#C5C4C4" fill-rule="nonzero">
            <g id="编组-6" transform="translate(0.000000, 1385.000000)">
                <g id="编组-3" transform="translate(34.000000, 15.000000)">
                    <g id="dianzan" transform="translate(524.000000, 15.000000)">
                        <path d="M4.42248515,25.5056046 L4.42248515,10.8630077 C4.42248515,10.2707302 4.02617613,9.7907251 3.5376646,9.7907251 L1.64993959,9.7907251 C0.739237642,9.7907251 0,10.6856499 0,11.7904753 L0,24.57651 C0,25.6813353 0.739237642,26.5762643 1.64993959,26.5762643 L3.5376646,26.5762643 C4.02617613,26.5778873 4.42248515,26.0978821 4.42248515,25.5056046 L4.42248515,25.5056046 Z M6.36197297,25.8049977 L6.36197297,10.5505976 C6.36197297,10.1991362 6.5965232,9.8899804 6.93459906,9.80211505 C8.1267613,9.49621348 10.8588672,8.39952382 12.0202952,4.65548387 C12.7271811,1.37680482 13.4971529,-0.170601523 15.7714814,0.0148919815 C18.0474275,0.200385486 18.2010984,2.42793468 18.2010984,3.10807753 L18.2010984,8.3669811 C18.2010984,8.3669811 18.0166933,9.17078628 18.7850476,9.23261745 C19.5534018,9.29444862 25.5497999,9.23261745 25.5497999,9.23261745 C25.5497999,9.23261745 28.8399736,9.17566769 27.7950118,13.2874404 C26.8859275,16.8622582 25.0855522,22.6158111 24.63101,24.0541993 C24.5378463,24.351689 24.4021665,24.6339682 24.2282306,24.8921744 C23.7882467,25.5381474 22.8629865,26.5762657 21.4508323,26.5762657 L7.13194478,26.5762657 C6.92805981,26.5770386 6.73225537,26.4961351 6.5877827,26.3514202 C6.44331002,26.2067054 6.36197297,26.0100876 6.36197297,25.8049977 L6.36197297,25.8049977 Z" id="形状"></path>
                    </g>
                </g>
            </g>
        </g>
    </g>
</svg>
