<?xml version="1.0" standalone="no"?><!DOCTYPE svg PUBLIC "-//W3C//DTD SVG 1.1//EN" "http://www.w3.org/Graphics/SVG/1.1/DTD/svg11.dtd"><svg t="1616754116261" class="icon" viewBox="0 0 1024 1024" version="1.1" xmlns="http://www.w3.org/2000/svg" p-id="3019" xmlns:xlink="http://www.w3.org/1999/xlink" width="200" height="200"><defs><style type="text/css"></style></defs><path d="M790.637714 182.857143H233.362286A87.076571 87.076571 0 0 0 146.285714 269.933714V687.908571a87.076571 87.076571 0 0 0 87.076572 87.04h87.04v104.521143a34.816 34.816 0 0 0 59.428571 24.539429l129.024-129.060572h281.782857A87.076571 87.076571 0 0 0 877.714286 687.908571V269.897143A87.076571 87.076571 0 0 0 790.637714 182.857143zM512 435.382857a43.52 43.52 0 1 1 0 87.04 43.52 43.52 0 0 1 0-87.04z m-148.041143 0a43.52 43.52 0 1 1 0 87.04 43.52 43.52 0 0 1 0-87.04z m296.082286 87.04a43.52 43.52 0 1 1 0-87.04 43.52 43.52 0 0 1 0 87.04z" p-id="3020"></path></svg>
