<?xml version="1.0" encoding="UTF-8"?>
<svg width="30px" height="30px" viewBox="0 0 30 30" version="1.1" xmlns="http://www.w3.org/2000/svg" xmlns:xlink="http://www.w3.org/1999/xlink">
    <title>_Icons / 8 Like_pink备份</title>
    <g id="页面-1" stroke="none" stroke-width="1" fill="none" fill-rule="evenodd">
        <g id="文章说说-评论" transform="translate(-474.000000, -1417.000000)" fill="#C5C4C4">
            <g id="编组-6" transform="translate(0.000000, 1385.000000)">
                <g id="编组-3" transform="translate(34.000000, 15.000000)">
                    <g id="编组-24备份" transform="translate(440.000000, 17.000000)">
                        <g id="_Icons-/-8-Like_pink备份" transform="translate(0.000000, -0.000000)">
                            <path d="M25.8843538,0.476190405 L4.1156462,0.476190405 C2.23712664,0.476190405 0.714285643,1.9990314 0.714285643,3.87755097 L0.714285643,20.2040817 C0.714285643,22.0826012 2.23712664,23.6054422 4.1156462,23.6054422 L7.51700677,23.6054422 L7.51700677,27.6870749 C7.51930973,28.235586 7.85076584,28.7290683 8.35765815,28.9386631 C8.86455047,29.1482578 9.44772793,29.0329672 9.83673467,28.6462586 L14.877551,23.6054422 L25.8843538,23.6054422 C27.7628734,23.6054422 29.2857144,22.0826012 29.2857144,20.2040817 L29.2857144,3.87755097 C29.2857144,1.9990314 27.7628734,0.476190405 25.8843538,0.476190405 Z M15,10.340136 C15.9392598,10.340136 16.7006803,11.1015565 16.7006803,12.0408163 C16.7006803,12.9800761 15.9392598,13.7414966 15,13.7414966 C14.0607402,13.7414966 13.2993197,12.9800761 13.2993197,12.0408163 C13.2993197,11.1015565 14.0607402,10.340136 15,10.340136 L15,10.340136 Z M9.21768705,10.340136 C10.1569468,10.340136 10.9183673,11.1015565 10.9183673,12.0408163 C10.9183673,12.9800761 10.1569468,13.7414966 9.21768705,13.7414966 C8.27842726,13.7414966 7.51700677,12.9800761 7.51700677,12.0408163 C7.51700677,11.1015565 8.27842726,10.340136 9.21768705,10.340136 L9.21768705,10.340136 Z M20.782313,13.7414966 C19.8430532,13.7414966 19.0816327,12.9800761 19.0816327,12.0408163 C19.0816327,11.1015565 19.8430532,10.340136 20.782313,10.340136 C21.7215727,10.340136 22.4829932,11.1015565 22.4829932,12.0408163 C22.4829932,12.9800761 21.7215727,13.7414966 20.782313,13.7414966 Z" id="12-Comment_3"></path>
                        </g>
                    </g>
                </g>
            </g>
        </g>
    </g>
</svg>
