<?xml version="1.0" standalone="no"?><!DOCTYPE svg PUBLIC "-//W3C//DTD SVG 1.1//EN" "http://www.w3.org/Graphics/SVG/1.1/DTD/svg11.dtd"><svg t="1615356551122" class="icon" viewBox="0 0 1024 1024" version="1.1" xmlns="http://www.w3.org/2000/svg" p-id="3328" xmlns:xlink="http://www.w3.org/1999/xlink" width="200" height="200"><defs><style type="text/css"></style></defs><path d="M208.018286 188.123429l4.608-4.571429a68.022857 68.022857 0 0 1 105.106285 9.142857l93.586286 133.558857a68.900571 68.900571 0 0 1-7.68 88.283429l-5.778286 5.778286a52.041143 52.041143 0 0 0-8.338285 63.634285 431.030857 431.030857 0 0 0 150.528 150.528 52.041143 52.041143 0 0 0 63.634285-8.338285l5.778286-5.778286a68.900571 68.900571 0 0 1 88.283429-7.68l133.522285 93.586286a68.022857 68.022857 0 0 1 9.179429 105.106285l-4.571429 4.608a211.273143 211.273143 0 0 1-261.449142 29.403429A1241.709714 1241.709714 0 0 1 178.614857 449.572571a211.273143 211.273143 0 0 1 29.403429-261.449142z" p-id="3329"></path></svg>
