<?xml version="1.0" encoding="UTF-8"?>
<svg width="28px" height="28px" viewBox="0 0 28 28" version="1.1" xmlns="http://www.w3.org/2000/svg" xmlns:xlink="http://www.w3.org/1999/xlink">
    <title>消息</title>
    <g id="消息" stroke="none" stroke-width="1" fill="none" fill-rule="evenodd">
        <path d="M21.6190477,4.99999995 L6.38095234,4.99999995 C5.06598865,4.99999995 3.99999995,6.06598865 3.99999995,7.38095234 L3.99999995,18.8095238 C3.99999995,20.1244875 5.06598865,21.1904762 6.38095234,21.1904762 L8.76190474,21.1904762 L8.76190474,24.0476191 C8.76351681,24.4315769 8.99553609,24.7770145 9.35036071,24.9237308 C9.70518533,25.0704472 10.1134096,24.9897437 10.3857143,24.7190477 L13.9142857,21.1904762 L21.6190477,21.1904762 C22.9340114,21.1904762 23.9999999,20.1244875 23.9999999,18.8095238 L23.9999999,7.38095234 C23.9999999,6.06598865 22.9340114,4.99999995 21.6190477,4.99999995 Z M14,11.9047619 C14.6574818,11.9047619 15.1904762,12.4377562 15.1904762,13.0952381 C15.1904762,13.7527199 14.6574818,14.2857143 14,14.2857143 C13.3425182,14.2857143 12.8095238,13.7527199 12.8095238,13.0952381 C12.8095238,12.4377562 13.3425182,11.9047619 14,11.9047619 L14,11.9047619 Z M9.95238093,11.9047619 C10.6098628,11.9047619 11.1428571,12.4377562 11.1428571,13.0952381 C11.1428571,13.7527199 10.6098628,14.2857143 9.95238093,14.2857143 C9.29489908,14.2857143 8.76190474,13.7527199 8.76190474,13.0952381 C8.76190474,12.4377562 9.29489908,11.9047619 9.95238093,11.9047619 L9.95238093,11.9047619 Z M18.0476191,14.2857143 C17.3901372,14.2857143 16.8571429,13.7527199 16.8571429,13.0952381 C16.8571429,12.4377562 17.3901372,11.9047619 18.0476191,11.9047619 C18.7051009,11.9047619 19.2380953,12.4377562 19.2380953,13.0952381 C19.2380953,13.7527199 18.7051009,14.2857143 18.0476191,14.2857143 Z" id="12-Comment_3" fill="#C5C4C4"></path>
    </g>
</svg>