<?xml version="1.0" standalone="no"?><!DOCTYPE svg PUBLIC "-//W3C//DTD SVG 1.1//EN" "http://www.w3.org/Graphics/SVG/1.1/DTD/svg11.dtd"><svg t="1615356710098" class="icon" viewBox="0 0 1024 1024" version="1.1" xmlns="http://www.w3.org/2000/svg" p-id="5838" xmlns:xlink="http://www.w3.org/1999/xlink" width="200" height="200"><defs><style type="text/css"></style></defs><path d="M512 146.285714C310.016 146.285714 146.285714 310.016 146.285714 512s163.730286 365.714286 365.714286 365.714286 365.714286-163.730286 365.714286-365.714286A365.714286 365.714286 0 0 0 512 146.285714z m137.142857 396.178286h-106.678857v106.678857a30.464 30.464 0 1 1-60.928 0v-106.678857H374.857143a30.464 30.464 0 1 1 0-60.928h106.678857V374.857143a30.464 30.464 0 1 1 60.928 0v106.678857h106.678857a30.464 30.464 0 1 1 0 60.928z" p-id="5839"></path></svg>
