<?xml version="1.0" encoding="UTF-8"?>
<svg width="72px" height="72px" viewBox="0 0 72 72" version="1.1" xmlns="http://www.w3.org/2000/svg" xmlns:xlink="http://www.w3.org/1999/xlink">
    <title>发布备份</title>
    <g id="页面-1" stroke="none" stroke-width="1" fill="none" fill-rule="evenodd">
        <g id="首页" transform="translate(-339.000000, -1466.000000)" fill="#ED17AA">
            <g id="发布备份" transform="translate(339.000000, 1466.000000)">
                <path d="M36,0.285714107 C16.2755446,0.285714107 0.285714107,16.2755446 0.285714107,36 C0.285714107,55.7244554 16.2755446,71.7142859 36,71.7142859 C55.7244554,71.7142859 71.7142859,55.7244554 71.7142859,36 C71.7142859,26.5279825 67.9515416,17.4439141 61.2538137,10.7461863 C54.5560859,4.04845842 45.4720175,0.285714107 36,0.285714107 Z M49.3928572,38.9761905 L38.9761905,38.9761905 L38.9761905,49.3928572 C38.9761905,51.0365618 37.6437046,52.3690477 36,52.3690477 C34.3562954,52.3690477 33.0238095,51.0365618 33.0238095,49.3928572 L33.0238095,38.9761905 L22.6071428,38.9761905 C20.9634382,38.9761905 19.6309523,37.6437046 19.6309523,36 C19.6309523,34.3562954 20.9634382,33.0238095 22.6071428,33.0238095 L33.0238095,33.0238095 L33.0238095,22.6071428 C33.0238095,20.9634382 34.3562954,19.6309523 36,19.6309523 C37.6437046,19.6309523 38.9761905,20.9634382 38.9761905,22.6071428 L38.9761905,33.0238095 L49.3928572,33.0238095 C51.0365618,33.0238095 52.3690477,34.3562954 52.3690477,36 C52.3690477,37.6437046 51.0365618,38.9761905 49.3928572,38.9761905 Z"  id="24-Plus"></path>
            </g>
        </g>
    </g>
</svg>
