<?xml version="1.0" encoding="UTF-8"?>
<svg width="32px" height="42px" viewBox="0 0 32 42" version="1.1" xmlns="http://www.w3.org/2000/svg" xmlns:xlink="http://www.w3.org/1999/xlink">
    <title>编组 8</title>
    <g id="页面-1" stroke="none" stroke-width="1" fill="none" fill-rule="evenodd">
        <g id="公会贡献榜" transform="translate(-60.000000, -646.000000)" fill-rule="nonzero">
            <g id="公会" transform="translate(30.000000, 258.000000)">
                <g id="编组-10" transform="translate(30.000000, 368.000000)">
                    <g id="paihangbang1" transform="translate(0.000000, 20.000000)">
                        <polygon id="路径" fill="#FF5E33" points="27 42 16 37.3244006 5 42 5 25 27 25"></polygon>
                        <path d="M0,15.9988433 C0,21.712716 3.04916136,26.9963132 8,29.8555628 C12.9508386,32.7148124 19.0491614,32.7148124 24,29.8555628 C28.9508386,26.9963132 32,21.7173426 32,15.9988433 C32,7.1620039 24.8374783,0 16,0 C7.16252169,0 0,7.1620039 0,15.9988433 Z" id="路径" fill="#FFCA28"></path>
                        <path d="M5,16 C5,22.0771899 9.92281006,27 16,27 C22.0771899,27 27,22.0771899 27,16 C27,9.92281006 22.0771899,5 16,5 C9.92281006,5 5,9.92281006 5,16 Z" id="路径" fill="#FFB806"></path>
                        <path d="M16.9762316,10.290314 L18.5737844,13.4140912 C18.6494579,13.5686531 18.8050091,13.6703385 18.9773767,13.694743 L22.5424419,14.1991029 C22.9796669,14.2601142 23.1562385,14.7807437 22.8367279,15.0776652 L20.2554189,17.5099813 C20.1292963,17.6279364 20.0704391,17.8028354 20.1040718,17.9655321 L20.7094602,21.3984331 C20.7851338,21.8173772 20.3268884,22.1387032 19.9359084,21.9393997 L16.4969657,20.1904099 L13.0622272,21.9353323 C12.6712472,22.1346358 12.2172058,21.8133097 12.2886753,21.3943657 L12.8940637,17.9614647 C12.9234924,17.7947006 12.8688392,17.623869 12.7427166,17.5059139 L10.1614076,15.0735978 C9.84610115,14.7766763 10.0184687,14.2560467 10.4556937,14.1950355 L14.0207589,13.6906756 C14.1931264,13.6662711 14.3402694,13.5605182 14.4243512,13.4100237 L16.021904,10.2862466 C16.215292,9.90390926 16.7828436,9.90390926 16.9762316,10.290314 Z" id="路径" fill="#FFF8E1"></path>
                    </g>
                </g>
            </g>
        </g>
    </g>
</svg>