<?xml version="1.0" encoding="UTF-8"?>
<svg width="80px" height="80px" viewBox="0 0 80 80" version="1.1" xmlns="http://www.w3.org/2000/svg" xmlns:xlink="http://www.w3.org/1999/xlink">
    <title>编组 5</title>
    <defs>
        <filter id="filter-1">
            <feColorMatrix in="SourceGraphic" type="matrix" values="0 0 0 0 1.000000 0 0 0 0 1.000000 0 0 0 0 1.000000 0 0 0 1.000000 0"></feColorMatrix>
        </filter>
        <polygon id="path-2" points="0.00307979917 0.040079319 41.7401404 0.040079319 41.7401404 41.1086715 0.00307979917 41.1086715"></polygon>
    </defs>
    <g id="页面-1" stroke="none" stroke-width="1" fill="none" fill-rule="evenodd">
        <g id="首页" transform="translate(-70.000000, -1454.000000)">
            <g id="标签栏备份" transform="translate(0.000000, 1431.000000)">
                <g id="编组-5" transform="translate(70.000000, 23.000000)">
                    <circle id="椭圆形" fill="#ED17AA" cx="40" cy="40" r="40"></circle>
                    <g filter="url(#filter-1)" id="huojian">
                        <g transform="translate(10.000000, 10.000000)">
                            <g id="编组" transform="translate(30.146174, 30.220101) rotate(-45.000000) translate(-30.146174, -30.220101) translate(9.146174, 9.220101)">
                                <mask id="mask-3" fill="white">
                                    <use xlink:href="#path-2"></use>
                                </mask>
                                <g id="Clip-2"></g>
                                <path d="M41.7326646,3.40390027 C41.6181988,7.18930928 40.7780809,10.8256742 39.3841124,14.3501934 C37.7231254,18.5644864 35.2601074,22.2754486 31.8422489,25.3523342 C31.584983,25.5691575 31.4618937,25.9014361 31.5177921,26.2289019 C31.6323093,27.3664598 31.7277317,28.5038672 31.8422489,29.641425 C32.1287729,32.2894266 31.1741378,34.4525962 28.978395,35.9818397 C26.6298428,37.6226783 24.2049116,39.1519217 21.7801344,40.6995639 C21.1084302,41.1662478 20.2302255,41.2390904 19.4875319,40.8901177 C18.7448896,40.5409445 18.2554069,39.8250014 18.2097232,39.0213264 C18.018827,36.9888022 17.8469742,34.9560775 17.7132596,32.9235533 C17.655924,31.8977911 17.6751727,31.8977911 16.6632021,31.7673462 C13.990039,31.412909 11.8897187,30.1823051 10.4578687,27.9257385 C9.75331332,26.7732914 9.32881434,25.4782672 9.21676098,24.1403797 C9.17841748,23.7300948 9.00661601,23.6368984 8.62482358,23.6180987 C6.46737293,23.506253 4.29067354,23.3758582 2.13301757,23.2080144 C0.338264608,23.077369 -0.578078304,21.2312877 0.395600203,19.6834451 C1.06391662,18.6018853 1.78931199,17.5389247 2.49592057,16.457365 C3.24061601,15.3011578 4.00435488,14.1450008 4.748845,12.9887937 C6.12351335,10.8816723 8.12835995,9.74406432 10.6678084,9.70686596 C12.1189071,9.70686596 13.5889979,9.949307 15.0403019,10.0983511 C15.3266206,10.1171508 15.5175168,10.0983511 15.7083617,9.87470976 C19.0879279,6.18234677 23.2885687,3.68353966 28.0428033,2.00525209 C30.7348558,1.05413725 33.4843978,0.43881026 36.3101649,0.158970334 C37.7421688,0.00992624602 39.1742241,-0.0274726405 40.6062281,0.214968399 C41.3890104,0.364213017 41.4270972,0.382812195 41.5418197,1.12873449 C41.6562856,1.89325597 41.7708028,2.63917826 41.7326646,3.40390027 Z M33.5607768,12.7277535 C33.5988637,10.2289464 31.4794999,8.08442606 28.9591462,8.0472277 C26.3435241,8.00982882 24.0903944,9.85591005 24.0140154,12.7651524 C23.9568851,15.1707631 26.2097582,17.3710809 28.7111198,17.3896801 C31.365034,17.4084798 33.5224847,15.3385567 33.5607768,12.7277535 Z" id="Fill-1" fill="#000000" mask="url(#mask-3)"></path>
                            </g>
                            <path d="M27.5253319,42.5085299 C28.234001,42.5142915 28.6115233,42.801667 28.8669987,43.4484027 C29.8675179,45.9970465 31.6760143,47.9455726 34.2718082,49.293864 C34.8577561,49.5829341 35.4433964,49.8341825 36.0703823,50.0288345 C37.198845,50.3792478 37.4572491,51.3862067 36.6295449,52.1378484 C35.408866,53.265608 34.1670709,54.3740315 32.9462921,55.4826258 C32.532301,55.8585729 32.096101,56.0256206 31.5317156,55.8314776 C30.9463128,55.6370108 30.6720506,55.2367624 30.6259953,54.6864811 C30.6024287,54.3450506 30.6202922,53.9849964 30.5967256,53.643566 C30.570692,52.9986957 30.570692,52.9986957 29.92594,53.1829573 L25.7876115,54.4006576 C25.3716163,54.5301012 24.9759209,54.5647034 24.5782231,54.353006 C23.9918957,54.0448194 23.7583624,53.5121273 24.0032007,52.8504987 C24.4513224,51.5649776 24.9202905,50.2794222 25.3892608,48.9941216 C25.5931604,48.4460254 25.5722129,48.4267416 24.9050302,48.4024078 C24.5090274,48.3991883 24.1127443,48.3959665 23.6957956,48.373667 C23.1537436,48.3692601 22.6510329,48.0617533 22.4803949,47.5865052 C22.267737,47.0918021 22.3895469,46.6757113 22.7826772,46.3187081 C24.0655936,45.1536863 25.3485656,43.988614 26.6106898,42.8234231 C26.8548039,42.6103687 27.1841803,42.4969896 27.5253319,42.5085299 Z" id="Fill-3" fill="#000000" transform="translate(29.746090, 49.210355) rotate(-45.000000) translate(-29.746090, -49.210355) "></path>
                        </g>
                    </g>
                </g>
            </g>
        </g>
    </g>
</svg>