<?xml version="1.0" encoding="UTF-8"?>
<svg width="209px" height="66px" viewBox="0 0 209 66" version="1.1" xmlns="http://www.w3.org/2000/svg" xmlns:xlink="http://www.w3.org/1999/xlink">
    <title>编组 3</title>
    <g id="页面-1" stroke="none" stroke-width="1" fill="none" fill-rule="evenodd">
        <g id="首页-直播" transform="translate(-511.000000, -549.000000)">
            <g id="编组" transform="translate(30.000000, 285.000000)">
                <g id="编组-3" transform="translate(481.000000, 264.263158)">
                    <rect id="矩形" fill="#FFFFFF" x="33" y="0" width="176" height="64.8199446"></rect>
                    <g id="编组-2" transform="translate(0.000000, 0.000000)">
                        <path d="M32.5,0 C14.5507457,0 0,14.5104389 0,32.4099725 C0,50.309506 14.5507457,64.8199446 32.5,64.8199446 C50.4492546,64.8199446 65,50.309506 65,32.4099725 C65,27.7865201 64.0093495,23.2649236 62.1452701,19.1273972 C60.5437593,15.5726702 58.2975472,12.3014355 55.4809707,9.49266116 C49.3860383,3.41461229 41.1195361,0 32.5,0 Z" id="11-Play" fill="#FC4B63"></path>
                        <g id="yanjing" transform="translate(14.000000, 13.961219)" fill="#FFFFFF" fill-rule="nonzero">
                            <path d="M35.4363257,19.1468144 C34.0835073,17.3518006 31.6784969,14.6592798 28.5219207,12.565097 L32.8810021,8.2271468 C33.4822547,7.62880883 33.4822547,6.73130191 32.8810021,6.13296398 C32.2797495,5.53462602 31.3778706,5.53462602 30.776618,6.13296398 L25.9665971,11.0692521 C24.0125261,10.0221606 21.908142,9.42382272 19.6534447,9.12465372 L19.6534447,1.49584485 C19.6534447,0.598337927 19.052192,7.09558605e-15 18.1503132,7.09558605e-15 C17.2484343,7.09558605e-15 16.6471816,0.598337962 16.6471816,1.49584485 L16.6471816,9.12465372 C14.2421712,9.27423822 12.137787,10.0221606 10.1837161,11.0692521 L5.22338202,6.13296398 C4.6221294,5.53462602 3.72025048,5.53462602 3.1189979,6.13296398 C2.51774527,6.73130194 2.51774527,7.62880887 3.1189979,8.2271468 L7.47807931,12.565097 C4.3215031,14.6592798 1.91649265,17.3518006 0.563674313,19.1468144 C-0.187891438,20.1939058 -0.187891438,21.6897507 0.563674313,22.7368421 C2.96868473,26.1772853 9.88308976,32.9085873 18,32.9085873 C26.1169102,32.9085873 33.0313153,26.1772853 35.4363257,22.7368421 C36.1878914,21.6897507 36.1878914,20.1939058 35.4363257,19.1468144 Z M18,26.1772853 C15.1440501,26.1772853 12.7390397,23.7839335 12.7390397,20.9418283 C12.7390397,18.099723 15.1440501,15.7063712 18,15.7063712 C20.8559499,15.7063712 23.2609603,18.099723 23.2609603,20.9418283 C23.2609603,23.7839335 20.8559499,26.1772853 18,26.1772853 Z" id="形状"></path>
                        </g>
                    </g>
                </g>
            </g>
        </g>
    </g>
</svg>