<?xml version="1.0" standalone="no"?><!DOCTYPE svg PUBLIC "-//W3C//DTD SVG 1.1//EN" "http://www.w3.org/Graphics/SVG/1.1/DTD/svg11.dtd"><svg t="1615356563560" class="icon" viewBox="0 0 1024 1024" version="1.1" xmlns="http://www.w3.org/2000/svg" p-id="3592" xmlns:xlink="http://www.w3.org/1999/xlink" width="200" height="200"><defs><style type="text/css"></style></defs><path d="M736.402286 620.068571c-32.256-0.036571-63.268571 12.470857-86.418286 34.889143l-238.738286-119.369143c0-4.973714 1.024-10.130286 1.024-15.286857 0-5.12 0-10.313143-1.024-15.286857l238.738286-119.369143a124.708571 124.708571 0 1 0-38.253714-89.746285c0 5.12 0 10.313143 1.024 15.286857l-238.738286 119.369143a124.708571 124.708571 0 1 0 0 179.529142l238.738286 119.332572c0 5.010286-1.024 10.166857-1.024 15.323428a124.708571 124.708571 0 1 0 124.708571-124.708571z" p-id="3593"></path></svg>
