<?xml version="1.0" encoding="UTF-8"?>
<svg width="84px" height="84px" viewBox="0 0 84 84" version="1.1" xmlns="http://www.w3.org/2000/svg" xmlns:xlink="http://www.w3.org/1999/xlink">
    <title>编组 6</title>
    <g id="页面-1" stroke="none" stroke-width="1" fill="none" fill-rule="evenodd">
        <g id="发布" transform="translate(-568.000000, -1016.000000)">
            <g id="编组-6" transform="translate(568.000000, 1016.000000)">
                <circle id="椭圆形" fill="#FC4B63" cx="42" cy="42" r="42"></circle>
                <g id="_Icons-/-11-Play备份-3" transform="translate(12.000000, 12.000000)" fill="#FFFFFF">
                    <path d="M46.3265307,10.7142856 L13.6734693,10.7142856 C10.85569,10.7142856 8.57142846,12.9985471 8.57142846,15.8163264 L8.57142846,40.3061225 C8.57142846,43.1239018 10.85569,45.4081633 13.6734693,45.4081633 L18.7755101,45.4081633 L18.7755101,51.5306123 C18.7789646,52.3533791 19.2761488,53.0936025 20.0364872,53.4079946 C20.7968257,53.7223868 21.6715919,53.5494508 22.255102,52.9693879 L29.8163265,45.4081633 L46.3265307,45.4081633 C49.14431,45.4081633 51.4285715,43.1239018 51.4285715,40.3061225 L51.4285715,15.8163264 C51.4285715,12.9985471 49.14431,10.7142856 46.3265307,10.7142856 Z M30,25.510204 C31.4088897,25.510204 32.5510204,26.6523348 32.5510204,28.0612245 C32.5510204,29.4701141 31.4088897,30.6122449 30,30.6122449 C28.5911103,30.6122449 27.4489796,29.4701141 27.4489796,28.0612245 C27.4489796,26.6523348 28.5911103,25.510204 30,25.510204 L30,25.510204 Z M21.3265306,25.510204 C22.7354202,25.510204 23.877551,26.6523348 23.877551,28.0612245 C23.877551,29.4701141 22.7354202,30.6122449 21.3265306,30.6122449 C19.9176409,30.6122449 18.7755101,29.4701141 18.7755101,28.0612245 C18.7755101,26.6523348 19.9176409,25.510204 21.3265306,25.510204 L21.3265306,25.510204 Z M38.6734694,30.6122449 C37.2645798,30.6122449 36.122449,29.4701141 36.122449,28.0612245 C36.122449,26.6523348 37.2645798,25.510204 38.6734694,25.510204 C40.0823591,25.510204 41.2244899,26.6523348 41.2244899,28.0612245 C41.2244899,29.4701141 40.0823591,30.6122449 38.6734694,30.6122449 Z" id="12-Comment_3"></path>
                </g>
            </g>
        </g>
    </g>
</svg>