<?xml version="1.0" encoding="UTF-8"?>
<svg width="28px" height="28px" viewBox="0 0 28 28" version="1.1" xmlns="http://www.w3.org/2000/svg" xmlns:xlink="http://www.w3.org/1999/xlink">
    <title>_Icons / Check备份 2</title>
    <g id="_Icons-/-Check备份-2" stroke="none" stroke-width="1" fill="none" fill-rule="evenodd">
        <path d="M13.9999999,3.99999995 C8.47715247,3.99999995 3.99999995,8.47715247 3.99999995,13.9999999 C3.99999995,19.5228475 8.47715247,23.9999999 13.9999999,23.9999999 C19.5228475,23.9999999 23.9999999,19.5228475 23.9999999,13.9999999 C23.9999999,11.3478351 22.9464316,8.80429595 21.0710678,6.92893215 C19.1957041,5.05356836 16.6521649,3.99999995 13.9999999,3.99999995 Z M18.5458334,12.0875 L13.5458333,17.0875 C13.2208021,17.410603 12.6958645,17.410603 12.3708333,17.0875 L9.45416664,14.1708333 C9.17101931,13.8401998 9.19005642,13.3473382 9.49786396,13.0395306 C9.8056715,12.7317231 10.2985331,12.712686 10.6291666,12.9958333 L12.9583333,15.3208333 L17.3708334,10.9125 C17.7014669,10.6293527 18.1943285,10.6483898 18.502136,10.9561973 C18.8099436,11.2640048 18.8289807,11.7568664 18.5458334,12.0875 L18.5458334,12.0875 Z" id="22-Check" fill="#02BB00"></path>
    </g>
</svg>