<?xml version="1.0" encoding="UTF-8"?>
<svg width="50px" height="52px" viewBox="0 0 50 52" version="1.1" xmlns="http://www.w3.org/2000/svg" xmlns:xlink="http://www.w3.org/1999/xlink">
    <title>编组</title>
    <defs>
        <filter id="filter-1">
            <feColorMatrix in="SourceGraphic" type="matrix" values="0 0 0 0 0.929412 0 0 0 0 0.090196 0 0 0 0 0.666667 0 0 0 1.000000 0"></feColorMatrix>
        </filter>
        <polygon id="path-2" points="3.47222222e-05 0.075162037 49.8888889 0.075162037 49.8888889 51.0416667 3.47222222e-05 51.0416667"></polygon>
    </defs>
    <g id="页面-1" stroke="none" stroke-width="1" fill="none" fill-rule="evenodd">
        <g id="编组" transform="translate(-54.000000, -1226.000000)" filter="url(#filter-1)">
            <g transform="translate(54.000000, 1226.000000)">
                <path d="M27.038125,21.8690339 C27.8671759,21.8636806 28.535463,21.1022222 28.5307427,20.1681944 C28.5258565,19.2342824 27.8499306,18.4815046 27.0208796,18.4869151 L10.6584954,18.4869151 C10.6527083,18.4869151 10.6469213,18.4869151 10.64125,18.4869151 C9.81208333,18.4923843 9.14391204,19.2538426 9.14874679,20.1877546 C9.15351852,21.1216667 9.82944444,21.8744444 10.6584954,21.8690339 L27.0208796,21.8690339 C27.0265509,21.8690339 27.032338,21.8690339 27.038125,21.8690339" id="Fill-1" fill="#263357"></path>
                <path d="M10.9186806,30.5112963 C9.94113426,30.5112963 9.14877315,31.2684722 9.14865741,32.2022685 C9.14865741,33.1362963 9.94113426,33.8933565 10.9186806,33.8933565 L15.3414815,33.8933565 C16.3191435,33.8933565 17.1115046,33.1362963 17.1115046,32.2022685 C17.1115046,31.2684722 16.3191435,30.5112963 15.3414815,30.5112963 L10.9186806,30.5112963 Z" id="Fill-3" fill="#263357"></path>
                <path d="M38.456331,44.2726389 C38.6714931,44.0257639 38.8780903,43.7678935 39.0742708,43.4981019 C42.7042477,38.508287 41.5981134,31.4954398 36.6082986,27.865463 C34.191169,26.1068981 31.2338773,25.3949769 28.281331,25.8607176 C25.328669,26.3264583 22.7342245,27.9140741 20.9756597,30.3312037 C19.5477662,32.2939352 18.8073727,34.6107176 18.8342245,37.0314352 C18.8503125,38.4747222 19.1386227,39.8815509 19.691169,41.2129167 C19.9850347,41.9213657 20.7976505,42.2572454 21.506331,41.9633796 C22.2147801,41.6693981 22.5507755,40.8566667 22.256794,40.1482176 C21.8409375,39.14625 21.6239236,38.0872222 21.6118866,37.0004167 C21.5916319,35.1821296 22.1483449,33.4410417 23.221956,31.965463 C24.5439468,30.1482176 26.4944097,28.9546991 28.7140856,28.6045833 C30.9334144,28.2542361 33.1570255,28.7896528 34.9741551,30.1116435 C38.7253125,32.8406944 39.5569097,38.1126852 36.8279745,41.8639583 C34.0990394,45.6152315 28.8268171,46.4465972 25.0756597,43.7177778 C24.4550579,43.2662731 23.5865394,43.4033102 23.1353819,44.0237963 C22.6842245,44.6440509 22.8211458,45.5126852 23.4414005,45.9639583 C25.4247338,47.4067824 27.7272801,48.1014583 30.0101505,48.1013426 C32.2587616,48.1012269 34.4879282,47.4265741 36.3738079,46.1299306 L41.3204514,50.7117593 C41.5878125,50.9593287 41.9261227,51.0817824 42.2638542,51.0817824 C42.6372338,51.0817824 43.0095718,50.9321296 43.2831829,50.6366435 C43.8044792,50.073912 43.7707986,49.1950926 43.2080671,48.673912 L38.456331,44.2726389 Z" id="Fill-5" fill="#263357"></path>
                <g transform="translate(0.000000, 0.040625)">
                    <mask id="mask-3" fill="white">
                        <use xlink:href="#path-2"></use>
                    </mask>
                    <g id="Clip-8"></g>
                    <path d="M46.2178588,0.075162037 L14.6016551,0.075162037 C12.577581,0.075162037 10.930706,1.65664352 10.930706,3.60050926 L10.930706,6.61821759 L3.61346065,6.61821759 C1.6209838,6.61821759 3.47222222e-05,8.23916667 3.47222222e-05,10.2316435 L3.47222222e-05,47.4281713 C3.47222222e-05,49.4206481 1.6209838,51.041713 3.61346065,51.041713 L23.7898495,51.041713 C24.6847569,51.041713 25.4102199,50.31625 25.4102199,49.4213426 C25.4102199,48.5264352 24.6847569,47.8009722 23.7898495,47.8009722 L3.61346065,47.8009722 C3.40802083,47.8009722 3.24077546,47.6337269 3.24077546,47.4281713 L3.24077546,10.2316435 C3.24077546,10.0262037 3.40802083,9.85895833 3.61346065,9.85895833 L34.3439005,9.85895833 C34.5495718,9.85895833 34.7167014,10.0262037 34.7167014,10.2316435 L34.7167014,22.4793287 C34.7167014,23.3742361 35.4420486,24.0996991 36.3370718,24.0996991 C37.2319792,24.0996991 37.9574421,23.3742361 37.9574421,22.4793287 L37.9574421,10.2316435 C37.9574421,8.23916667 36.3363773,6.61821759 34.3439005,6.61821759 L14.1714468,6.61821759 L14.1714468,3.60050926 C14.1714468,3.46613426 14.3554745,3.31590278 14.6016551,3.31590278 L46.2178588,3.31590278 C46.4641551,3.31590278 46.6481829,3.46613426 46.6481829,3.60050926 L46.6481829,39.1515509 C46.6481829,39.2858102 46.4641551,39.4361574 46.2178588,39.4361574 L43.537419,39.4361574 C42.6423958,39.4361574 41.9170486,40.1616204 41.9170486,41.0565278 C41.9170486,41.9514352 42.6423958,42.6768981 43.537419,42.6768981 L46.2178588,42.6768981 C48.2420486,42.6768981 49.8889236,41.0954167 49.8889236,39.1515509 L49.8889236,3.60050926 C49.8889236,1.65664352 48.2420486,0.075162037 46.2178588,0.075162037" id="Fill-7" fill="#263357" mask="url(#mask-3)"></path>
                </g>
            </g>
        </g>
    </g>
</svg>