<?xml version="1.0" encoding="UTF-8"?>
<svg width="60px" height="60px" viewBox="0 0 60 60" version="1.1" xmlns="http://www.w3.org/2000/svg" xmlns:xlink="http://www.w3.org/1999/xlink">
    <title>编组 6</title>
    <g id="页面-1" stroke="none" stroke-width="1" fill="none" fill-rule="evenodd">
        <g id="任务详情" transform="translate(-50.000000, -1358.000000)">
            <g id="编组-6" transform="translate(50.000000, 1358.000000)">
                <g id="编组-5" fill="#1452F5">
                    <rect id="Rectangle-2" x="0" y="0" width="60" height="60" rx="30"></rect>
                </g>
                <g id="54" transform="translate(10.000000, 15.000000)" fill="#FFFFFF" fill-rule="nonzero">
                    <path d="M20.4282342,6.34803922 C27.1836638,6.34803922 32.6666667,11.8329302 32.6666667,18.5906863 C32.6666667,19.0304033 32.6435316,19.4932633 32.5972616,19.9098373 C31.2091596,20.5578413 29.7053824,21.0669873 28.1322002,21.4372753 C26.7440982,21.7612773 25.2634561,21.9927073 23.7365439,22.1084223 C23.3663834,21.4141323 22.6260623,20.9512723 21.7932011,20.9512723 L19.3408876,20.9512723 C18.1378659,20.9512723 17.1430595,21.9464213 17.1430595,23.1498573 C17.1430595,24.3532933 18.1378659,25.3484423 19.3408876,25.3484423 L21.7932011,25.3484423 C22.6954674,25.3484423 23.4820585,24.7930103 23.805949,24.0292913 C25.4485364,23.8904333 27.0448536,23.6590033 28.5486308,23.3118583 C29.7979226,23.0109993 30.9778093,22.6638543 32.1114259,22.2009943 C30.5613787,27.1998823 25.911237,30.8333333 20.4050992,30.8333333 C13.6496695,30.8333333 8.16666667,25.3484423 8.16666667,18.5906863 C8.16666667,11.8329302 13.6496695,6.34803922 20.4282342,6.34803922 Z M20.4634402,0 C15.505441,0 11.0385643,2.05021546 7.78780069,5.3639358 C5.70637648,7.4856704 4.13946163,10.108039 3.27415044,13.0641636 L2.64270714,13.0641636 C1.19272623,13.0641636 0,14.2799891 0,15.7580514 L0,19.9538412 C0,21.4319035 1.19272623,22.6477289 2.64270714,22.6477289 L6.10395189,22.6477289 L6.10395189,13.4217593 C6.85232913,11.109307 8.11521573,9.05909157 9.77567774,7.39031154 C12.511932,4.60106493 16.3005918,2.86076576 20.486827,2.86076576 C24.6730622,2.86076576 28.461722,4.57722521 31.1979763,7.39031154 C32.7648912,8.98757242 34.004391,10.9662687 34.7527682,13.1356828 L34.7527682,22.6715686 L38.1906262,22.6715686 C39.6406071,22.6715686 40.8333333,21.4557432 40.8333333,19.9776809 L40.8333333,15.7580514 C40.8333333,14.2799891 39.6406071,13.0641636 38.1906262,13.0641636 L37.65273,13.0641636 C36.7874189,10.108039 35.220504,7.4856704 33.1390798,5.3639358 C29.9117029,2.05021546 25.4214395,0 20.4634402,0 Z" id="形状"></path>
                </g>
            </g>
        </g>
    </g>
</svg>