<?xml version="1.0" encoding="UTF-8"?>
<svg width="21px" height="28px" viewBox="0 0 21 28" version="1.1" xmlns="http://www.w3.org/2000/svg" xmlns:xlink="http://www.w3.org/1999/xlink">
    <title>_Icons / 6 Edit备份</title>
    <defs>
        <filter id="filter-1">
            <feColorMatrix in="SourceGraphic" type="matrix" values="0 0 0 0 0.078431 0 0 0 0 0.321569 0 0 0 0 0.960784 0 0 0 1.000000 0"></feColorMatrix>
        </filter>
    </defs>
    <g id="页面-1" stroke="none" stroke-width="1" fill="none" fill-rule="evenodd">
        <g id="_Icons-/-6-Edit备份" transform="translate(-561.000000, -2022.000000)" filter="url(#filter-1)">
            <g transform="translate(561.000000, 2022.000000)">
                <path d="M19.5416667,25.0835723 C20.3470819,25.0835723 21,25.7364368 21,26.5417861 C21,27.3471354 20.3470819,28 19.5416667,28 L1.45833333,28 C0.652918073,28 4.88498131e-15,27.3471354 4.88498131e-15,26.5417861 C4.88498131e-15,25.7364368 0.652918073,25.0835723 1.45833333,25.0835723 L19.5416667,25.0835723 Z M13.545,0.853890537 C14.6839579,-0.284630179 16.5302088,-0.284630179 17.6691667,0.853890537 L17.6691667,0.853890537 L20.1483333,3.32702127 C21.2830651,4.46521479 21.2830651,6.30682372 20.1483333,7.44501724 L20.1483333,7.44501724 L9.49666667,18.0899785 C9.17024192,18.4183317 8.77032743,18.664259 8.33,18.8074197 L8.33,18.8074197 L1.51666667,20.9480777 C1.102286,21.0764791 0.650873344,20.9643705 0.34472823,20.657026 C0.0385831151,20.3496814 -0.0717317938,19.8978618 0.0583333333,19.484031 L0.0583333333,19.484031 L2.19333333,12.6654229 C2.33819375,12.2245618 2.58617224,11.8246293 2.91666667,11.4988518 L2.91666667,11.4988518 Z M15.9267068,2.61662264 C15.5238755,2.50869317 15.0940596,2.62385256 14.7991667,2.91872138 L14.7991667,2.91872138 L4.8825,12.8345757 C4.51208076,13.2975046 4.54782135,13.964622 4.96558121,14.3853314 C5.38334106,14.8060408 6.05024183,14.8465257 6.51583333,14.479441 L6.51583333,14.479441 L16.4325,4.56358663 L16.45,4.56941949 C16.744893,4.27455067 16.8600618,3.84477 16.7521235,3.4419717 C16.6441852,3.0391734 16.3295381,2.72455212 15.9267068,2.61662264 Z" id="Combined-Shape" fill="#FFFFFF"></path>
            </g>
        </g>
    </g>
</svg>