<?xml version="1.0" encoding="UTF-8"?>
<svg width="52px" height="49px" viewBox="0 0 52 49" version="1.1" xmlns="http://www.w3.org/2000/svg" xmlns:xlink="http://www.w3.org/1999/xlink">
    <title>编组</title>
    <defs>
        <filter id="filter-1">
            <feColorMatrix in="SourceGraphic" type="matrix" values="0 0 0 0 0.929412 0 0 0 0 0.090196 0 0 0 0 0.666667 0 0 0 1.000000 0"></feColorMatrix>
        </filter>
        <polygon id="path-2" points="0.0133148421 0.055406133 24.0738688 0.055406133 24.0738688 24.115942 0.0133148421 24.115942"></polygon>
    </defs>
    <g id="页面-1" stroke="none" stroke-width="1" fill="none" fill-rule="evenodd">
        <g id="编组" transform="translate(-53.000000, -700.000000)" filter="url(#filter-1)">
            <g transform="translate(53.000000, 700.000000)">
                <path d="M33.882835,11.3043478 L13.5953601,11.3043478 C12.7462659,11.3043478 12.057971,10.6294979 12.057971,9.79706922 C12.057971,8.96470496 12.7462659,8.28985507 13.5953601,8.28985507 L33.882835,8.28985507 C34.7319292,8.28985507 35.4202899,8.96470496 35.4202899,9.79706922 C35.4202899,10.6294979 34.7319292,11.3043478 33.882835,11.3043478" id="Fill-1" fill="#595757"></path>
                <path d="M47.4689038,3.01449275 L1.51653862,3.01449275 C0.678960032,3.01449275 0,2.33969289 0,1.50724638 C0,0.674799862 0.678960032,0 1.51653862,0 L47.4689038,0 C48.3064824,0 48.9855072,0.674799862 48.9855072,1.50724638 C48.9855072,2.33969289 48.3064824,3.01449275 47.4689038,3.01449275" id="Fill-3" fill="#595757"></path>
                <path d="M27.1127568,34.6361804 L7.82210893,34.6361804 C6.85128761,34.6361804 6.06427618,33.8509964 6.06427618,32.8824292 L6.06427618,0 L3.01449275,0 L3.01449275,34.9948151 C3.01449275,36.4784031 4.22004822,37.6811594 5.70708905,37.6811594 L6.06427618,37.6811594 L6.06427618,37.6788175 L27.1127568,37.6788175 C27.9549308,37.6788175 28.6376812,36.9977175 28.6376812,36.157499 C28.6376812,35.3173455 27.9549308,34.6361804 27.1127568,34.6361804" id="Fill-5" fill="#595757"></path>
                <path d="M42.9565217,20.3494068 L42.9565217,0 L45.9710145,0 L45.9710145,20.3494068 C45.9710145,21.1809803 45.2962146,21.8550725 44.4638326,21.8550725 C43.6313861,21.8550725 42.9565217,21.1809803 42.9565217,20.3494068" id="Fill-7" fill="#595757"></path>
                <path d="M21.6673645,37.6929412 L16.3832783,47.4407558 C15.9819009,48.1811467 15.0677342,48.4496653 14.341374,48.0405346 C13.6150137,47.6314695 13.3515837,46.6995789 13.7528969,45.9592535 L19.0370473,36.211439 C19.4383605,35.4710481 20.3525271,35.2025295 21.0788874,35.6115946 C21.8052476,36.0207253 22.0687419,36.9525503 21.6673645,37.6929412" id="Fill-9" fill="#595757"></path>
                <path d="M33.882835,20.3478261 L13.5953601,20.3478261 C12.7462659,20.3478261 12.057971,19.6729762 12.057971,18.8406119 L12.057971,18.8405475 C12.057971,18.0081832 12.7462659,17.3333333 13.5953601,17.3333333 L33.882835,17.3333333 C34.7319292,17.3333333 35.4202899,18.0081832 35.4202899,18.8405475 L35.4202899,18.8406119 C35.4202899,19.6729762 34.7319292,20.3478261 33.882835,20.3478261" id="Fill-11" fill="#595757"></path>
                <path d="M26.362958,29.3913043 L13.579006,29.3913043 C12.7389441,29.3913043 12.057971,28.71644 12.057971,27.8839935 C12.057971,27.051547 12.7389441,26.3768116 13.579006,26.3768116 L26.362958,26.3768116 C27.2030199,26.3768116 27.884058,27.051547 27.884058,27.8839935 C27.884058,28.71644 27.2030199,29.3913043 26.362958,29.3913043" id="Fill-13" fill="#595757"></path>
                <g transform="translate(27.884058, 24.115942)">
                    <mask id="mask-3" fill="white">
                        <use xlink:href="#path-2"></use>
                    </mask>
                    <g id="Clip-16"></g>
                    <path d="M23.0817571,5.93917955 L18.1744222,1.03184466 L17.7074675,0.564890011 C17.0383798,-0.104197725 15.9652852,-0.115737073 15.3105244,0.53895889 L14.8535532,0.995930061 L0.642975097,15.228031 C0.235597195,15.6360572 0.00934816893,16.1919556 0.0133148421,16.7748872 L0.0478558828,21.7078291 L0.0282130591,21.7075698 L0.0400765467,22.8058175 C0.0475965716,23.4978543 0.611598442,24.066459 1.30370005,24.0796838 L2.42172031,24.101077 L2.42146099,24.0814342 L7.35498632,24.1159753 C7.93752894,24.1199419 8.49316802,23.8939522 8.90112938,23.4870281 L18.2356845,14.1734124 C18.6892198,13.7198771 18.6811811,12.9764967 18.2177272,12.5129779 C17.7542084,12.049524 17.0108928,12.0414853 16.5572927,12.4950206 L7.26649637,21.7858169 L2.3960485,21.7332416 L2.34347315,16.8627937 L16.531945,2.67432183 L20.7995592,6.94193598 C21.1528707,7.2952475 21.1589645,7.86197214 20.8132378,8.20776363 C20.4674463,8.55349029 19.9007217,8.54733165 19.5473454,8.19408496 L17.7995878,6.44619779 C17.3360691,5.98274384 16.5926887,5.97470519 16.1390885,6.42830531 C15.6855532,6.88184061 15.6935919,7.62528583 16.1571107,8.08867496 L18.5446538,10.4762829 L19.0272967,10.9589907 C19.6963197,11.6280136 20.7694791,11.6396178 21.4242399,10.984857 L21.8811462,10.5278858 L23.13336,9.27573682 L23.5903312,8.81876565 C24.2450271,8.16400486 24.2334878,7.09091027 23.5644001,6.42182253 L23.0817571,5.93917955 Z" id="Fill-15" fill="#595757" mask="url(#mask-3)"></path>
                </g>
            </g>
        </g>
    </g>
</svg>