<?xml version="1.0" encoding="UTF-8"?>
<svg width="54px" height="54px" viewBox="0 0 54 54" version="1.1" xmlns="http://www.w3.org/2000/svg" xmlns:xlink="http://www.w3.org/1999/xlink">
    <title>编组</title>
    <defs>
        <filter id="filter-1">
            <feColorMatrix in="SourceGraphic" type="matrix" values="0 0 0 0 0.929412 0 0 0 0 0.090196 0 0 0 0 0.666667 0 0 0 1.000000 0"></feColorMatrix>
        </filter>
        <polygon id="path-2" points="0 0.0698529947 41.9835683 0.0698529947 41.9835683 53.406505 0 53.406505"></polygon>
    </defs>
    <g id="页面-1" stroke="none" stroke-width="1" fill="none" fill-rule="evenodd">
        <g id="编组" transform="translate(-52.000000, -436.000000)" filter="url(#filter-1)">
            <g transform="translate(52.000000, 436.000000)">
                <path d="M33.9236493,31.6169832 C33.9236493,30.5459532 34.36187,29.8473251 35.2636347,29.4807393 C36.7086854,28.8936731 38.6952259,29.3437983 39.5053953,30.1388314 C40.1016628,30.7239589 41.0680831,30.7239589 41.6643505,30.1388314 C42.260618,29.5538802 42.260618,28.6053392 41.6643505,28.020388 C40.7523487,27.1252487 39.4279883,26.5417075 38.020833,26.3205222 L38.020833,24.6409244 C38.020833,23.8136388 37.3372806,23.1428571 36.4942446,23.1428571 C35.651029,23.1428571 34.9676562,23.8136388 34.9676562,24.6409244 L34.9676562,26.4334941 C34.6684449,26.5075163 34.3758787,26.598634 34.095166,26.7126634 C32.045766,27.545765 30.8704725,29.3332237 30.8704725,31.6169832 C30.8704725,34.9439263 33.8300784,35.944459 35.9911888,36.6749871 C38.5168844,37.5287093 39.1839138,37.937946 39.0648399,39.1906827 C38.9683954,40.2058436 38.6433219,40.8963645 38.0713002,41.3017239 C37.1424161,41.9599923 35.6379183,41.8093044 35.153002,41.6995048 C34.6626977,41.5789545 34.0994764,41.389493 33.7767376,41.2433874 C33.6048617,40.8871999 33.2909233,40.5978085 32.8800016,40.4631587 C32.0798897,40.2016138 31.2154815,40.6254787 30.9487775,41.410466 C30.7900123,41.877863 30.8386835,42.3783937 31.0859909,42.8197067 C31.7190761,43.9496019 33.7488998,44.4443166 34.4231131,44.6085753 C34.4931566,44.6253184 34.6865843,44.6683217 34.9676562,44.7088577 L34.9676562,45.9744602 C34.9676562,46.8019221 35.651029,47.4725275 36.4942446,47.4725275 C37.3372806,47.4725275 38.020833,46.8019221 38.020833,45.9744602 L38.020833,44.5694493 C38.6312888,44.4110067 39.2546756,44.1538678 39.8351384,43.747451 C40.7457035,43.1099793 41.8786117,41.850369 42.104906,39.4687945 C42.4633849,35.6938412 39.1670315,34.5796316 36.9856265,33.84223 C34.6506646,33.0528367 33.9236493,32.6430712 33.9236493,31.6169832 Z" id="Fill-1" fill="#1452F5"></path>
                <path d="M36.2418775,18.3954853 C34.2895924,18.420003 32.3603562,18.7707813 30.5080079,19.43842 C29.2799122,19.880935 28.1040722,20.4578915 27.0126858,21.1532972 C26.9423078,21.1982868 26.8782638,21.2490759 26.8182666,21.3030283 C26.1231082,21.7608326 25.4592679,22.2674929 24.8334318,22.8214274 C24.2151613,23.3686838 24.1581551,24.3127626 24.7058717,24.9301394 C25.0014592,25.2633437 25.4126425,25.4332849 25.8257612,25.4332849 C26.1783549,25.4332849 26.532532,25.3095635 26.817035,25.0575514 C27.8259033,24.1646132 28.9507193,23.4170125 30.1603407,22.8354867 C30.2180506,22.8078954 30.2722417,22.7759106 30.3244973,22.7419927 C30.7159748,22.5606283 31.1158977,22.3954321 31.5230342,22.2486887 C32.0294038,22.0660941 32.543163,21.9151329 33.0614968,21.7900056 C33.1234294,21.7840304 33.185538,21.7754191 33.2478225,21.7613599 C34.2955746,21.5256917 35.3765803,21.406188 36.4609289,21.406188 C44.4827864,21.406188 51.0089361,27.92476 51.0089361,35.9371275 C51.0089361,41.3550359 48.0233264,46.2875486 43.2170386,48.8097783 C42.4858114,49.1934201 42.2044755,50.0965513 42.5885632,50.8269294 C42.8561755,51.3355229 43.3759168,51.6263736 43.9139565,51.6263736 C44.1483151,51.6263736 44.3861927,51.5710153 44.6082352,51.4544993 C50.4012223,48.4143619 54,42.4685286 54,35.9371275 C54,26.2977531 46.1651719,18.4523393 36.5221578,18.4193 C36.4310183,18.4031319 36.3375915,18.3943448 36.2418775,18.3954853 Z" id="Fill-3" fill="#1452F5"></path>
                <g>
                    <mask id="mask-3" fill="white">
                        <use xlink:href="#path-2"></use>
                    </mask>
                    <g id="Clip-6"></g>
                    <path d="M15.7221021,3.07609599 C23.5906285,3.07609599 28.4221049,5.94325195 28.4221049,7.99869842 C28.4221049,8.01602904 28.4242382,8.03265228 28.4247715,8.04980605 C28.4242382,8.06678299 28.4221049,8.08340623 28.4221049,8.10056 C28.4221049,10.1561833 23.5906285,13.0233393 15.7221021,13.0233393 C7.85357577,13.0233393 3.02209935,10.1561833 3.02209935,8.10056 C3.02209935,8.08340623 3.02014386,8.06678299 3.01943277,8.04980605 C3.02014386,8.03265228 3.02209935,8.01602904 3.02209935,7.99869842 C3.02209935,5.94325195 7.85357577,3.07609599 15.7221021,3.07609599 M40.0954767,49.940028 C38.9024516,50.2454359 37.6660501,50.4001736 36.4209378,50.4001736 C28.3159753,50.4001736 21.7220712,43.8408889 21.7220712,35.7780849 C21.7220712,33.4096263 22.2731632,31.1504567 23.3597032,29.0635321 C23.7435121,28.3264504 23.4539221,27.4192457 22.7129701,27.0374416 C21.9720181,26.6558144 21.0600498,26.943538 20.676241,27.6807965 C19.3833081,30.1638494 18.6999541,32.963805 18.6999541,35.7780849 C18.6999541,36.1425584 18.7125759,36.5042024 18.7344418,36.8631937 C17.7540315,36.9889291 17.0395674,36.9951186 15.7221021,36.9951186 C8.45337713,36.9951186 3.02209935,34.3960567 3.02209935,32.0723393 L3.02209935,24.3777225 C5.8349793,26.308141 10.3878876,27.5156251 15.7221021,27.5156251 C17.4443533,27.5156251 19.1344279,27.3837002 20.7455719,27.1233873 C21.5693654,26.9904014 22.1288127,26.2183047 21.9949506,25.3988141 C21.8610886,24.5795004 21.0847601,24.0235059 20.261322,24.1559614 C18.809817,24.3904552 17.2825812,24.5092937 15.7221021,24.5092937 C8.45337713,24.5092937 3.02209935,21.9104086 3.02209935,19.5866913 L3.02209935,12.930143 C3.41177468,13.1964686 3.83735988,13.4500615 4.29672169,13.6887996 C4.39307389,13.7388462 4.49262598,13.7770442 4.59324471,13.8049854 C5.63605289,14.3218976 6.82836698,14.7624136 8.1444101,15.111148 C8.22956269,15.1507609 8.31915958,15.1836537 8.41373407,15.2075275 L8.59559441,15.2527993 C8.59594995,15.2527993 8.59612772,15.2527993 8.59648327,15.2529761 C10.775963,15.7873957 13.2400551,16.0698141 15.7221021,16.0698141 C21.0559611,16.0698141 25.609225,14.8626836 28.4221049,12.932442 L28.4221049,17.0245895 C28.4221049,17.8546907 29.0987036,18.5277553 29.9331635,18.5277553 C30.7678011,18.5277553 31.444222,17.8546907 31.444222,17.0245895 L31.444222,8.14088021 C31.444222,8.13433702 31.4435109,8.12797067 31.4433332,8.12160432 C31.4433332,8.1145306 31.444222,8.10763372 31.444222,8.10056 C31.444222,8.08340623 31.4422665,8.06678299 31.4417332,8.04980605 C31.4422665,8.03265228 31.444222,8.01602904 31.444222,7.99869842 C31.444222,3.47841387 24.6851682,0.0697645732 15.7221021,0.0697645732 C6.75903606,0.0697645732 -1.77771595e-05,3.47841387 -1.77771595e-05,7.99869842 C-1.77771595e-05,8.01602904 0.00193771039,8.03265228 0.00264879677,8.04980605 C0.00193771039,8.06678299 -1.77771595e-05,8.08340623 -1.77771595e-05,8.10056 C-1.77771595e-05,8.10763372 0.000871080818,8.1145306 0.000871080818,8.12160432 C0.000871080818,8.12797067 -1.77771595e-05,8.13433702 -1.77771595e-05,8.14088021 L-1.77771595e-05,44.4405636 C-1.77771595e-05,48.9608482 6.75903606,52.3694975 15.7221021,52.3694975 C18.0685094,52.3694975 20.3192756,52.1293447 22.411825,51.6555822 C23.2254856,51.4713118 23.734979,50.6656149 23.549741,49.8562044 C23.364503,49.0467939 22.5549312,48.5394313 21.740915,48.7240554 C19.868269,49.148125 17.8432728,49.3631661 15.7221021,49.3631661 C8.45337713,49.3631661 3.02209935,46.764281 3.02209935,44.4405636 L3.02209935,36.8635474 C5.8349793,38.793789 10.3878876,40.00145 15.7221021,40.00145 C17.1366307,40.00145 17.9888677,39.9927847 19.1749598,39.8375166 C21.0228956,47.6074685 28.0535844,53.406505 36.4209378,53.406505 C37.9199079,53.406505 39.4096339,53.2197588 40.848695,52.8515716 C41.6568447,52.6446652 42.1434055,51.8251747 41.9355905,51.0212463 C41.7275977,50.217141 40.9034486,49.7334754 40.0954767,49.940028" id="Fill-5" fill="#1452F5" mask="url(#mask-3)"></path>
                </g>
            </g>
        </g>
    </g>
</svg>