<?xml version="1.0" encoding="UTF-8"?>
<svg width="50px" height="49px" viewBox="0 0 50 49" version="1.1" xmlns="http://www.w3.org/2000/svg" xmlns:xlink="http://www.w3.org/1999/xlink">
    <title>编组</title>
    <defs>
        <filter id="filter-1">
            <feColorMatrix in="SourceGraphic" type="matrix" values="0 0 0 0 0.929412 0 0 0 0 0.090196 0 0 0 0 0.666667 0 0 0 1.000000 0"></feColorMatrix>
        </filter>
        <polygon id="path-2" points="1.34589502e-05 0.0133916555 41.3457739 0.0133916555 41.3457739 48.2503028 1.34589502e-05 48.2503028"></polygon>
        <polygon id="path-4" points="0.0538761777 0.0268169583 27.6176312 0.0268169583 27.6176312 27.5908143 0.0538761777 27.5908143"></polygon>
    </defs>
    <g id="页面-1" stroke="none" stroke-width="1" fill="none" fill-rule="evenodd">
        <g id="编组" transform="translate(-54.000000, -568.000000)" filter="url(#filter-1)">
            <g transform="translate(54.000000, 568.000000)">
                <g transform="translate(0.000000, 0.053903)">
                    <mask id="mask-3" fill="white">
                        <use xlink:href="#path-2"></use>
                    </mask>
                    <g id="Clip-2"></g>
                    <path d="M20.6728937,44.8048789 C21.6245087,44.8048789 22.3957739,45.5762113 22.3957739,46.5274899 C22.3957739,47.4790377 21.6245087,48.2503028 20.6728937,48.2503028 L5.33177658,48.2503028 C2.37740242,48.2503028 1.34589502e-05,45.8074361 1.34589502e-05,42.81679 L1.34589502e-05,5.44693809 C1.34589502e-05,2.45622476 2.37740242,0.0133580081 5.33177658,0.0133580081 L36.0140108,0.0133580081 C38.9683849,0.0133580081 41.3457739,2.45622476 41.3457739,5.44693809 L41.3457739,15.2700875 C41.3457739,16.2214334 40.5745087,16.9926985 39.6232301,16.9926985 C38.6716151,16.9926985 37.9003499,16.2214334 37.9003499,15.2700875 L37.9003499,5.44693809 C37.9003499,4.33758412 37.0441588,3.45884926 36.0140108,3.45884926 L5.33177658,3.45884926 C4.30162853,3.45884926 3.44543742,4.33758412 3.44543742,5.44693809 L3.44543742,42.81679 C3.44543742,43.9260767 4.30162853,44.8048789 5.33177658,44.8048789 L20.6728937,44.8048789 Z" id="Fill-1" fill="#231916" mask="url(#mask-3)"></path>
                </g>
                <g transform="translate(22.341857, 20.713392)">
                    <mask id="mask-5" fill="white">
                        <use xlink:href="#path-4"></use>
                    </mask>
                    <g id="Clip-4"></g>
                    <path d="M13.8359085,24.1453903 C19.5443876,24.1453903 24.1722476,19.5175303 24.1722476,13.808782 C24.1722476,8.10003365 19.5443876,3.47217362 13.8359085,3.47217362 C8.12716016,3.47217362 3.49930013,8.10003365 3.49930013,13.808782 C3.49930013,19.5175303 8.12716016,24.1453903 13.8359085,24.1453903 M13.8359085,27.5908143 C6.22426649,27.5908143 0.0538761777,21.4204913 0.0538761777,13.808782 C0.0538761777,6.19713997 6.22426649,0.0268169583 13.8359085,0.0268169583 C21.4472813,0.0268169583 27.6176716,6.19713997 27.6176716,13.808782 C27.6176716,21.4204913 21.4472813,27.5908143 13.8359085,27.5908143" id="Fill-3" fill="#231916" mask="url(#mask-5)"></path>
                </g>
                <path d="M12.0591655,29.3539166 C11.1078197,29.3539166 10.3366218,28.5826514 10.3366218,27.6313055 C10.3366218,26.6797577 11.1078197,25.9084926 12.0591655,25.9084926 L15.5045895,25.9084926 C16.4562046,25.9084926 17.2274697,26.6797577 17.2274697,27.6313055 C17.2274697,28.5826514 16.4562046,29.3539166 15.5045895,29.3539166 L12.0591655,29.3539166 Z M12.0591655,15.5718843 C11.1078197,15.5718843 10.3366218,14.8006864 10.3366218,13.8493405 C10.3366218,12.8977254 11.1078197,12.1264603 12.0591655,12.1264603 L29.2866218,12.1264603 C30.2382369,12.1264603 31.009502,12.8977254 31.009502,13.8493405 C31.009502,14.8006864 30.2382369,15.5718843 29.2866218,15.5718843 L12.0591655,15.5718843 Z M37.0389098,33.6607806 L41.3166353,33.6607806 C42.2679139,33.6607806 43.0394482,34.4320458 43.0394482,35.3836608 C43.0394482,36.3350067 42.2679139,37.1062046 41.3166353,37.1062046 L35.3163661,37.1062046 C34.364751,37.1062046 33.5934859,36.3350067 33.5934859,35.3836608 L33.5934859,30.2153567 C33.5934859,29.2640108 34.364751,28.4924764 35.3163661,28.4924764 C36.2676447,28.4924764 37.0389098,29.2640108 37.0389098,30.2153567 L37.0389098,33.6607806 Z" id="Fill-5" fill="#231916"></path>
            </g>
        </g>
    </g>
</svg>