<?xml version="1.0" encoding="UTF-8"?>
<svg width="36px" height="36px" viewBox="0 0 36 36" version="1.1" xmlns="http://www.w3.org/2000/svg" xmlns:xlink="http://www.w3.org/1999/xlink">
    <title>fangda</title>
    <defs>
        <filter id="filter-1">
            <feColorMatrix in="SourceGraphic" type="matrix" values="0 0 0 0 1.000000 0 0 0 0 1.000000 0 0 0 0 1.000000 0 0 0 1.000000 0"></feColorMatrix>
        </filter>
    </defs>
    <g id="页面-1" stroke="none" stroke-width="1" fill="none" fill-rule="evenodd">
        <g id="fangda" transform="translate(-632.000000, -967.000000)" filter="url(#filter-1)">
            <g transform="translate(632.000000, 967.000000)">
                <path d="M15.8841818,20.1149039 C16.4671119,20.6978622 16.5253127,21.623423 16.02,22.2748057 L15.8841818,22.4286169 L5.58818182,32.7257852 L13.0532727,32.7274215 C13.8828679,32.7275309 14.5811192,33.3484049 14.6781818,34.1722649 L14.6896364,34.3637107 C14.6894295,35.1938236 14.0676373,35.8922529 13.2430909,35.988546 L13.0532727,36 L1.63636364,36 L1.51363636,35.9950911 L1.30745455,35.9672742 L1.12581818,35.9181855 L0.944181818,35.8461888 L0.783818182,35.7611018 L0.626727273,35.6514704 L0.479454545,35.5205672 C0.422129796,35.4634474 0.369077993,35.4021945 0.320727273,35.3373028 L0.204545455,35.157311 L0.116181818,34.9707741 L0.0589090909,34.7989637 L0.00981818182,34.5535203 L0,34.3620745 L0,22.9015045 C0.00181395158,22.0360632 0.677258305,21.3216962 1.54127852,21.2714093 C2.40529873,21.2211224 3.15906281,21.852308 3.26127273,22.7116949 L3.27272727,22.9015045 L3.27109091,30.4104359 L13.5703636,20.1149039 C14.2093634,19.4761261 15.2451821,19.4761261 15.8841818,20.1149039 Z M22.9467273,0 L34.3636364,0 L34.4863636,0.00490886778 L34.6925455,0.0327257852 L34.8741818,0.081814463 L35.0558182,0.15381119 L35.2161818,0.238898232 L35.3732727,0.348529612 L35.5205455,0.479432753 C35.5794545,0.536702877 35.6318182,0.598881869 35.6792727,0.66269715 L35.7954545,0.842688969 L35.8838182,1.02922594 L35.9410909,1.20103632 L35.9901818,1.44647971 L36,1.63628926 L36,13.0968592 C35.998186,13.9623005 35.3227417,14.6766675 34.4587215,14.7269544 C33.5947013,14.7772413 32.8409372,14.1460557 32.7387273,13.2866688 L32.7272727,13.0968592 L32.7272727,5.58629153 L22.4296364,15.8834598 C21.8184933,16.4925041 20.8394384,16.5223992 20.1922714,15.9517769 C19.5451044,15.3811545 19.4522159,14.4061019 19.98,13.723558 L20.1158182,13.5697468 L30.4101818,3.27257852 L22.9483636,3.27257852 C22.1181442,3.27329915 21.4189536,2.6522154 21.3218182,1.8277351 L21.3103636,1.63628926 C21.3105705,0.806176412 21.9323627,0.107747092 22.7569091,0.0114540248 L22.9467273,0 Z" id="形状" fill="#000000" fill-rule="nonzero"></path>
            </g>
        </g>
    </g>
</svg>