<?xml version="1.0" encoding="UTF-8"?>
<svg width="42px" height="42px" viewBox="0 0 42 42" version="1.1" xmlns="http://www.w3.org/2000/svg" xmlns:xlink="http://www.w3.org/1999/xlink">
    <title>编组 17</title>
    <g id="页面-1" stroke="none" stroke-width="1" fill="none" fill-rule="evenodd">
        <g id="我的公会" transform="translate(-66.000000, -1047.000000)">
            <g id="编组-16" transform="translate(30.000000, 913.000000)">
                <g id="签到天数" transform="translate(30.000000, 95.000000)">
                    <g id="编组-17" transform="translate(6.000000, 39.000000)">
                        <g id="jinbi" fill-rule="nonzero">
                            <path d="M0,20.9991248 C0,32.597041 9.4012086,42 20.9991248,42 C32.597041,42 42,32.5970411 42,20.9991248 C42,9.4012086 32.597041,0 20.9991248,0 C9.4020288,0.000966553041 0.000966553041,9.4020288 0,20.9991248 Z" id="路径" fill="#FFD96B"></path>
                            <path d="M3.54929577,20.9987507 C3.53986122,27.2321616 6.86309729,32.9952409 12.2630232,36.1098608 C17.6674182,39.2295996 24.3253762,39.2310775 29.731156,36.1137384 C35.1327198,33.000945 38.4582424,27.2384871 38.4507042,21.0045671 C38.4610182,14.7683852 35.1360238,9.00260327 29.733095,5.8876406 C24.3285005,2.7698475 17.6714956,2.7698475 12.2669011,5.8876406 C6.86548242,9.00127315 3.5406599,14.7645388 3.54929577,20.9987507 Z" id="路径" fill="#F9AB10"></path>
                        </g>
                        <polyline id="路径-3" stroke="#FFFFFF" stroke-width="3" stroke-linecap="round" points="12 20.3756682 18.4678718 27 30 16"></polyline>
                    </g>
                </g>
            </g>
        </g>
    </g>
</svg>