<?xml version="1.0" encoding="UTF-8"?>
<svg width="28px" height="28px" viewBox="0 0 28 28" version="1.1" xmlns="http://www.w3.org/2000/svg" xmlns:xlink="http://www.w3.org/1999/xlink">
    <title>_Icons / 26 Info</title>
    <g id="_Icons-/-26-Info" stroke="none" stroke-width="1" fill="none" fill-rule="evenodd">
        <path d="M13.9999999,3.99999995 C8.47715247,3.99999995 3.99999995,8.47715247 3.99999995,13.9999999 C3.99999995,19.5228475 8.47715247,23.9999999 13.9999999,23.9999999 C19.5228475,23.9999999 23.9999999,19.5228475 23.9999999,13.9999999 C23.9999999,11.3478351 22.9464316,8.80429595 21.0710678,6.92893215 C19.1957041,5.05356836 16.6521649,3.99999995 13.9999999,3.99999995 Z M14.8333333,18.1666667 C14.8333333,18.626904 14.4602373,19 14,19 C13.5397627,19 13.1666667,18.626904 13.1666667,18.1666667 L13.1666667,12.75 C13.1666667,12.2897627 13.5397627,11.9166667 14,11.9166667 C14.4602373,11.9166667 14.8333333,12.2897627 14.8333333,12.75 L14.8333333,18.1666667 Z M14,10.6666666 C13.5397627,10.6666666 13.1666667,10.2935706 13.1666667,9.83333331 C13.1666667,9.37309602 13.5397627,8.99999997 14,8.99999997 C14.4602373,8.99999997 14.8333333,9.37309602 14.8333333,9.83333331 C14.8333333,10.2935706 14.4602373,10.6666666 14,10.6666666 Z" id="26-Info" fill="#1452F5"></path>
    </g>
</svg>
