<?xml version="1.0" encoding="UTF-8"?>
<svg width="84px" height="84px" viewBox="0 0 84 84" version="1.1" xmlns="http://www.w3.org/2000/svg" xmlns:xlink="http://www.w3.org/1999/xlink">
    <title>编组 6备份</title>
    <g id="页面-1" stroke="none" stroke-width="1" fill="none" fill-rule="evenodd">
        <g id="发布" transform="translate(-333.000000, -1016.000000)">
            <g id="编组-6备份" transform="translate(333.000000, 1016.000000)">
                <circle id="椭圆形" fill="#1452F5" cx="42" cy="42" r="42"></circle>
                <g id="_Icons-/-11-Play备份-3" transform="translate(12.000000, 12.000000)" fill="#FFFFFF">
                    <path d="M46.9107144,19.9642857 L40.7142858,25.7946428 L40.7142858,21.9642857 C40.7142858,19.4987287 38.715557,17.4999999 36.25,17.4999999 L13.0357142,17.4999999 C10.5701573,17.4999999 8.57142846,19.4987287 8.57142846,21.9642857 L8.57142846,38.0357143 C8.57142846,40.5012713 10.5701573,42.4999999 13.0357142,42.4999999 L36.25,42.4999999 C37.4340022,42.4999999 38.5695108,42.029657 39.4067267,41.192441 C40.2439427,40.3552251 40.7142858,39.2197165 40.7142858,38.0357143 L40.7142858,34.2053572 L46.9107144,40.0357143 C47.6881031,40.7700022 48.8277493,40.9715576 49.8098333,40.5484464 C50.7919172,40.1253351 51.4285715,39.1586369 51.4285715,38.0892858 L51.4285715,21.9107142 C51.4285715,20.8413631 50.7919172,19.8746649 49.8098333,19.4515536 C48.8277493,19.0284424 47.6881031,19.2299978 46.9107144,19.9642857 Z" id="17-Video"></path>
                </g>
            </g>
        </g>
    </g>
</svg>